<?xml version="1.0" encoding="UTF-8"?>
<svg width="1106px" height="336px" viewBox="0 0 1106 336" version="1.1" xmlns="http://www.w3.org/2000/svg" xmlns:xlink="http://www.w3.org/1999/xlink">
    <!-- Generator: Sketch 48.2 (47327) - http://www.bohemiancoding.com/sketch -->
    <title>Style 6</title>
    <desc>Created with Sketch.</desc>
    <defs>
        <polygon id="path-1" points="0 335.825 1105.606 335.825 1105.606 0 0 0"></polygon>
    </defs>
    <g id="Background-Images" stroke="none" stroke-width="1" fill="none" fill-rule="evenodd" transform="translate(-1659.000000, -1518.000000)">
        <g id="Style-6" transform="translate(1659.000000, 1518.000000)">
            <path d="M516.0464,127.2492 L447.9424,127.2492 C442.4274,127.2492 440.0504,120.1092 444.5644,116.9412 C444.6274,116.8972 444.6914,116.8532 444.7554,116.8092 C451.1804,112.3922 459.6124,112.7932 459.6124,112.7932 C459.6124,112.7932 460.8174,88.9002 483.5054,88.9002 C494.7224,88.9002 503.7874,108.0752 503.7874,108.0752 C503.7874,108.0752 519.0464,108.0752 521.5714,120.1222 C522.3364,123.7722 519.7754,127.2492 516.0464,127.2492 Z" id="Fill-1" fill="#FFFFFF"></path>
            <path d="M516.0464,127.2492 L447.9424,127.2492 C442.4274,127.2492 440.0504,120.1092 444.5644,116.9412 C444.6274,116.8972 444.6914,116.8532 444.7554,116.8092 C451.1804,112.3922 459.6124,112.7932 459.6124,112.7932 C459.6124,112.7932 460.8174,88.9002 483.5054,88.9002 C494.7224,88.9002 503.7874,108.0752 503.7874,108.0752 C503.7874,108.0752 519.0464,108.0752 521.5714,120.1222 C522.3364,123.7722 519.7754,127.2492 516.0464,127.2492 Z" id="Stroke-3" stroke="#E1E4E5" stroke-width="4" stroke-linecap="round" stroke-linejoin="round"></path>
            <path d="M225.7598,102.1545 L289.9068,102.1545 C295.6408,102.1545 298.1138,94.7295 293.4198,91.4345 C293.3538,91.3885 293.2878,91.3425 293.2208,91.2975 C286.5388,86.7035 277.7688,87.1205 277.7688,87.1205 C277.7688,87.1205 276.5158,62.2725 252.9208,62.2725 C231.5888,62.2725 223.0818,83.2095 220.0138,94.7435 C219.0168,98.4915 221.8818,102.1545 225.7598,102.1545" id="Fill-5" fill="#FFFFFF"></path>
            <path d="M225.7598,102.1545 L289.9068,102.1545 C295.6408,102.1545 298.1138,94.7295 293.4198,91.4345 C293.3538,91.3885 293.2878,91.3425 293.2208,91.2975 C286.5388,86.7035 277.7688,87.1205 277.7688,87.1205 C277.7688,87.1205 276.5158,62.2725 252.9208,62.2725 C231.5888,62.2725 223.0818,83.2095 220.0138,94.7435 C219.0168,98.4915 221.8818,102.1545 225.7598,102.1545 Z" id="Stroke-7" stroke="#E1E4E5" stroke-width="4" stroke-linecap="round" stroke-linejoin="round"></path>
            <path d="M727.0483,98.9973 C742.4263,98.9973 735.2313,74.6133 715.7493,80.4373 C714.6713,46.5793 659.4833,21.8063 636.6633,67.4733 C630.2113,62.3673 615.7233,72.0103 618.9313,80.4373 C611.7643,81.0493 606.1253,81.8773 601.7393,82.9753 C591.6113,85.5103 593.6153,98.8833 604.0563,98.7893 L727.0483,98.9973 Z" id="Fill-9" fill="#FFFFFF"></path>
            <path d="M727.0483,98.9973 C742.4263,98.9973 735.2313,74.6133 715.7493,80.4373 C714.6713,46.5793 659.4833,21.8063 636.6633,67.4733 C630.2113,62.3673 615.7233,72.0103 618.9313,80.4373 C611.7643,81.0493 606.1253,81.8773 601.7393,82.9753 C591.6113,85.5103 593.6153,98.8833 604.0563,98.7893 L727.0483,98.9973 Z" id="Stroke-11" stroke="#E1E4E5" stroke-width="4" stroke-linecap="round" stroke-linejoin="round"></path>
            <path d="M474.2534,52.422 L567.9014,52.422 C576.6924,52.422 576.2894,45.184 573.4174,42.662 C570.4754,40.077 564.6594,41.126 564.6594,41.126 C564.6594,41.126 562.9284,36.257 557.2304,33.887 C552.1894,31.79 546.9084,32.788 546.9084,32.788 C546.9084,32.788 546.9084,29.447 543.6814,26.68 C540.4534,23.912 536.1504,24.182 536.1504,24.182 C536.1504,24.182 533.1914,5.758 513.4234,5.758 C493.6554,5.758 491.3694,23.106 491.3694,23.106 C491.3694,23.106 486.9314,23.106 483.7034,26.065 C480.4764,29.023 480.0724,32.385 480.0724,32.385 C480.0724,32.385 469.2794,30.931 466.0874,40.241 C464.1844,45.79 468.0934,52.422 474.2534,52.422" id="Fill-13" fill="#FFFFFF"></path>
            <path d="M474.2534,52.422 L567.9014,52.422 C576.6924,52.422 576.2894,45.184 573.4174,42.662 C570.4754,40.077 564.6594,41.126 564.6594,41.126 C564.6594,41.126 562.9284,36.257 557.2304,33.887 C552.1894,31.79 546.9084,32.788 546.9084,32.788 C546.9084,32.788 546.9084,29.447 543.6814,26.68 C540.4534,23.912 536.1504,24.182 536.1504,24.182 C536.1504,24.182 533.1914,5.758 513.4234,5.758 C493.6554,5.758 491.3694,23.106 491.3694,23.106 C491.3694,23.106 486.9314,23.106 483.7034,26.065 C480.4764,29.023 480.0724,32.385 480.0724,32.385 C480.0724,32.385 469.2794,30.931 466.0874,40.241 C464.1844,45.79 468.0934,52.422 474.2534,52.422 Z" id="Stroke-15" stroke="#E1E4E5" stroke-width="4" stroke-linecap="round" stroke-linejoin="round"></path>
            <path d="M820.0132,202.1818 C820.0132,234.5078 846.2182,260.7128 878.5442,260.7128 C910.8702,260.7128 937.0752,234.5078 937.0752,202.1818 C937.0752,169.8558 910.8702,106.1028 878.5442,106.1028 C846.2182,106.1028 820.0132,169.8558 820.0132,202.1818" id="Fill-17" fill="#FFFFFF"></path>
            <path d="M820.0132,202.1818 C820.0132,234.5078 846.2182,260.7128 878.5442,260.7128 C910.8702,260.7128 937.0752,234.5078 937.0752,202.1818 C937.0752,169.8558 910.8702,106.1028 878.5442,106.1028 C846.2182,106.1028 820.0132,169.8558 820.0132,202.1818 Z" id="Stroke-19" stroke="#E1E4E5" stroke-width="4" stroke-linecap="round" stroke-linejoin="round"></path>
            <path d="M905.4951,209.1057 L905.4481,209.0587 C904.1631,207.7737 902.1731,207.7737 900.8881,209.0587 L881.8001,228.3327 L881.8001,160.0637 L898.7441,143.0017 C900.0291,141.7157 899.9821,139.6317 898.6971,138.3467 L898.6271,138.2997 C897.3421,137.0147 895.3401,137.0147 894.0551,138.2997 L881.8001,150.7467 L881.8001,136.0017 C881.8001,134.1847 880.1391,132.5697 878.3221,132.5697 L878.2551,132.5697 C876.4381,132.5697 874.8001,134.1847 874.8001,136.0017 L874.8001,179.1907 L865.0471,169.0797 C863.7621,167.7937 861.7191,167.7937 860.4341,169.0797 L860.4081,169.1267 C859.1221,170.4117 859.0511,172.4947 860.3361,173.7797 L874.8001,188.5177 L874.8001,284.5697 L881.8001,284.5697 L881.8001,237.6427 L905.5891,213.7597 C906.8741,212.4747 906.7801,210.3907 905.4951,209.1057" id="Fill-21" fill="#FFFFFF"></path>
            <path d="M905.4951,209.1057 L905.4481,209.0587 C904.1631,207.7737 902.1731,207.7737 900.8881,209.0587 L881.8001,228.3327 L881.8001,160.0637 L898.7441,143.0017 C900.0291,141.7157 899.9821,139.6317 898.6971,138.3467 L898.6271,138.2997 C897.3421,137.0147 895.3401,137.0147 894.0551,138.2997 L881.8001,150.7467 L881.8001,136.0017 C881.8001,134.1847 880.1391,132.5697 878.3221,132.5697 L878.2551,132.5697 C876.4381,132.5697 874.8001,134.1847 874.8001,136.0017 L874.8001,179.1907 L865.0471,169.0797 C863.7621,167.7937 861.7191,167.7937 860.4341,169.0797 L860.4081,169.1267 C859.1221,170.4117 859.0511,172.4947 860.3361,173.7797 L874.8001,188.5177 L874.8001,284.5697 L881.8001,284.5697 L881.8001,237.6427 L905.5891,213.7597 C906.8741,212.4747 906.7801,210.3907 905.4951,209.1057 Z" id="Stroke-23" stroke="#E1E4E5" stroke-width="4" stroke-linecap="round" stroke-linejoin="round"></path>
            <path d="M287.2266,210.8293 C287.2266,238.8863 264.4816,261.6303 236.4246,261.6303 C208.3686,261.6303 185.6236,238.8863 185.6236,210.8293 C185.6236,182.7723 208.3686,127.4383 236.4246,127.4383 C264.4816,127.4383 287.2266,182.7723 287.2266,210.8293" id="Fill-25" fill="#FFFFFF"></path>
            <path d="M287.2266,210.8293 C287.2266,238.8863 264.4816,261.6303 236.4246,261.6303 C208.3686,261.6303 185.6236,238.8863 185.6236,210.8293 C185.6236,182.7723 208.3686,127.4383 236.4246,127.4383 C264.4816,127.4383 287.2266,182.7723 287.2266,210.8293 Z" id="Stroke-27" stroke="#E1E4E5" stroke-width="4" stroke-linecap="round" stroke-linejoin="round"></path>
            <path d="M252.0025,182.1389 L251.9615,182.0979 C250.8465,180.9829 249.1715,180.9829 248.0565,182.0979 L239.7995,190.7249 L239.7995,153.3889 C239.7995,151.8119 238.2525,150.5699 236.6755,150.5699 L236.6185,150.5699 C235.0405,150.5699 233.7995,151.8119 233.7995,153.3889 L233.7995,215.6489 L217.2785,199.0679 C216.1625,197.9519 214.3445,197.9519 213.2295,199.0679 L213.1835,199.1089 C212.0685,200.2239 212.0855,202.0329 213.2005,203.1479 L233.7995,223.7299 L233.7995,282.5699 L239.7995,282.5699 L239.7995,198.8229 L252.1365,186.1779 C253.2525,185.0629 253.1185,183.2539 252.0025,182.1389" id="Fill-29" fill="#FFFFFF"></path>
            <path d="M252.0025,182.1389 L251.9615,182.0979 C250.8465,180.9829 249.1715,180.9829 248.0565,182.0979 L239.7995,190.7249 L239.7995,153.3889 C239.7995,151.8119 238.2525,150.5699 236.6755,150.5699 L236.6185,150.5699 C235.0405,150.5699 233.7995,151.8119 233.7995,153.3889 L233.7995,215.6489 L217.2785,199.0679 C216.1625,197.9519 214.3445,197.9519 213.2295,199.0679 L213.1835,199.1089 C212.0685,200.2239 212.0855,202.0329 213.2005,203.1479 L233.7995,223.7299 L233.7995,282.5699 L239.7995,282.5699 L239.7995,198.8229 L252.1365,186.1779 C253.2525,185.0629 253.1185,183.2539 252.0025,182.1389 Z" id="Stroke-31" stroke="#E1E4E5" stroke-width="4" stroke-linecap="round" stroke-linejoin="round"></path>
            <path d="M654.0566,333.8254 C654.0566,333.8254 731.1346,282.0604 839.4366,281.3344 C948.2306,280.6034 1034.7846,331.0394 1042.7576,333.6964 L654.0566,333.8254 Z" id="Fill-33" fill="#FFFFFF"></path>
            <path d="M654.0566,333.8254 C654.0566,333.8254 731.1346,282.0604 839.4366,281.3344 C948.2306,280.6034 1034.7846,331.0394 1042.7576,333.6964 L654.0566,333.8254 Z" id="Stroke-35" stroke="#E1E4E5" stroke-width="4" stroke-linecap="round" stroke-linejoin="round"></path>
            <path d="M69.9087,333.6584 C69.9087,333.6584 146.9867,281.1754 255.2887,280.4474 C364.0827,279.7184 450.6367,331.1674 458.6097,333.8254 L69.9087,333.6584 Z" id="Fill-37" fill="#FFFFFF"></path>
            <path d="M69.9087,333.6584 C69.9087,333.6584 146.9867,281.1754 255.2887,280.4474 C364.0827,279.7184 450.6367,331.1674 458.6097,333.8254 L69.9087,333.6584 Z" id="Stroke-39" stroke="#E1E4E5" stroke-width="4" stroke-linecap="round" stroke-linejoin="round"></path>
            <g id="Group-44" transform="translate(2.000000, 333.825000)">
                <path d="M0,0.0004 L1101.606,0.0004" id="Fill-41" fill="#FFFFFF"></path>
                <path d="M0,0.0004 L1101.606,0.0004" id="Stroke-43" stroke="#E1E4E5" stroke-width="4" stroke-linecap="round" stroke-linejoin="round"></path>
            </g>
            <path d="M861.5479,174.3508 C861.5479,238.6878 819.0509,265.0898 766.6299,265.0898 C714.2069,265.0898 671.7109,238.6878 671.7109,174.3508 C671.7109,110.0148 736.9669,10.5358 766.6299,10.5358 C796.2919,10.5358 861.5479,110.0148 861.5479,174.3508" id="Fill-45" fill="#FFFFFF"></path>
            <path d="M861.5479,174.3508 C861.5479,238.6878 819.0509,265.0898 766.6299,265.0898 C714.2069,265.0898 671.7109,238.6878 671.7109,174.3508 C671.7109,110.0148 736.9669,10.5358 766.6299,10.5358 C796.2919,10.5358 861.5479,110.0148 861.5479,174.3508 Z" id="Stroke-47" stroke="#E1E4E5" stroke-width="4" stroke-linecap="round" stroke-linejoin="round"></path>
            <path d="M766.6958,106.423 L766.5628,106.423 C762.9388,106.423 760.0008,109.361 760.0008,112.986 L760.0008,333.825 L773.2578,333.825 L773.2578,112.986 C773.2578,109.361 770.3208,106.423 766.6958,106.423" id="Fill-49" fill="#FFFFFF"></path>
            <path d="M766.6958,106.423 L766.5628,106.423 C762.9388,106.423 760.0008,109.361 760.0008,112.986 L760.0008,333.825 L773.2578,333.825 L773.2578,112.986 C773.2578,109.361 770.3208,106.423 766.6958,106.423 Z" id="Stroke-51" stroke="#E1E4E5" stroke-width="4" stroke-linecap="round" stroke-linejoin="round"></path>
            <g id="Group-56" transform="translate(769.000000, 183.825000)">
                <path d="M0.2324,65.9916 L54.5374,11.6866 C57.1004,9.1236 57.1004,4.9686 54.5374,2.4056 L54.4434,2.3116 C51.8804,-0.2504 47.7254,-0.2504 45.1624,2.3116 L1.1364,46.5476" id="Fill-53" fill="#FFFFFF"></path>
                <path d="M0.2324,65.9916 L54.5374,11.6866 C57.1004,9.1236 57.1004,4.9686 54.5374,2.4056 L54.4434,2.3116 C51.8804,-0.2504 47.7254,-0.2504 45.1624,2.3116 L1.1364,46.5476" id="Stroke-55" stroke="#E1E4E5" stroke-width="4" stroke-linecap="round" stroke-linejoin="round"></path>
            </g>
            <g id="Group-60" transform="translate(707.000000, 125.825000)">
                <path d="M56.7734,66.2924 L2.4684,11.9874 C-0.0946,9.4254 -0.0946,5.2704 2.4684,2.7064 L2.5624,2.6124 C5.1254,0.0504 9.2804,0.0504 11.8434,2.6124 L55.8694,46.8494" id="Fill-57" fill="#FFFFFF"></path>
                <path d="M56.7734,66.2924 L2.4684,11.9874 C-0.0946,9.4254 -0.0946,5.2704 2.4684,2.7064 L2.5624,2.6124 C5.1254,0.0504 9.2804,0.0504 11.8434,2.6124 L55.8694,46.8494" id="Stroke-59" stroke="#E1E4E5" stroke-width="4" stroke-linecap="round" stroke-linejoin="round"></path>
            </g>
            <path d="M441.8447,190.885 C441.8447,239.269 409.8857,282.775 370.4617,282.775 C331.0377,282.775 299.0777,239.269 299.0777,190.885 C299.0777,142.501 348.1547,2 370.4617,2 C392.7687,2 441.8447,142.501 441.8447,190.885" id="Fill-61" fill="#FFFFFF"></path>
            <path d="M441.8447,190.885 C441.8447,239.269 409.8857,282.775 370.4617,282.775 C331.0377,282.775 299.0777,239.269 299.0777,190.885 C299.0777,142.501 348.1547,2 370.4617,2 C392.7687,2 441.8447,142.501 441.8447,190.885 Z" id="Stroke-63" stroke="#E1E4E5" stroke-width="4" stroke-linecap="round" stroke-linejoin="round"></path>
            <path d="M370.5112,67.258 L370.4112,67.258 C367.6852,67.258 365.4762,69.468 365.4762,72.194 L365.4762,333.825 L375.4472,333.825 L375.4472,72.194 C375.4472,69.468 373.2372,67.258 370.5112,67.258" id="Fill-65" fill="#FFFFFF"></path>
            <path d="M370.5112,67.258 L370.4112,67.258 C367.6852,67.258 365.4762,69.468 365.4762,72.194 L365.4762,333.825 L375.4472,333.825 L375.4472,72.194 C375.4472,69.468 373.2372,67.258 370.5112,67.258 Z" id="Stroke-67" stroke="#E1E4E5" stroke-width="4" stroke-linecap="round" stroke-linejoin="round"></path>
            <g id="Group-72" transform="translate(372.000000, 187.825000)">
                <path d="M0.4189,50.2816 L41.2589,9.4416 C43.1869,7.5136 43.1869,4.3886 41.2589,2.4616 L41.1889,2.3906 C39.2609,0.4636 36.1359,0.4636 34.2089,2.3906 L1.0989,35.6586" id="Fill-69" fill="#FFFFFF"></path>
                <path d="M0.4189,50.2816 L41.2589,9.4416 C43.1869,7.5136 43.1869,4.3886 41.2589,2.4616 L41.1889,2.3906 C39.2609,0.4636 36.1359,0.4636 34.2089,2.3906 L1.0989,35.6586" id="Stroke-71" stroke="#E1E4E5" stroke-width="4" stroke-linecap="round" stroke-linejoin="round"></path>
            </g>
            <g id="Group-76" transform="translate(340.000000, 158.825000)">
                <path d="M28.7598,35.8891 L2.3568,9.1181 C0.4288,7.1911 0.4288,4.0661 2.3568,2.1391 L2.4268,2.0691 C4.3548,0.1411 7.4798,0.1411 9.4068,2.0691 L28.0798,21.2661" id="Fill-73" fill="#FFFFFF"></path>
                <path d="M28.7598,35.8891 L2.3568,9.1181 C0.4288,7.1911 0.4288,4.0661 2.3568,2.1391 L2.4268,2.0691 C4.3548,0.1411 7.4798,0.1411 9.4068,2.0691 L28.0798,21.2661" id="Stroke-75" stroke="#E1E4E5" stroke-width="4" stroke-linecap="round" stroke-linejoin="round"></path>
            </g>
            <g id="Group-80" transform="translate(372.000000, 95.825000)">
                <path d="M0.8174,35.7142 L27.2204,8.9442 C29.1474,7.0172 29.1474,3.8922 27.2204,1.9642 L27.1504,1.8942 C25.2224,-0.0338 22.0974,-0.0338 20.1704,1.8942 L0.2214,22.3672" id="Fill-77" fill="#FFFFFF"></path>
                <path d="M0.8174,35.7142 L27.2204,8.9442 C29.1474,7.0172 29.1474,3.8922 27.2204,1.9642 L27.1504,1.8942 C25.2224,-0.0338 22.0974,-0.0338 20.1704,1.8942 L0.2214,22.3672" id="Stroke-79" stroke="#E1E4E5" stroke-width="4" stroke-linecap="round" stroke-linejoin="round"></path>
            </g>
            <g id="Group-84" transform="translate(494.000000, 297.825000)">
                <path d="M0.4951,0.6644 L0.4951,36.0004" id="Fill-81" fill="#FFFFFF"></path>
                <path d="M0.4951,0.6644 L0.4951,36.0004" id="Stroke-83" stroke="#E1E4E5" stroke-width="4" stroke-linecap="round" stroke-linejoin="round"></path>
            </g>
            <g id="Group-88" transform="translate(633.000000, 297.825000)">
                <path d="M0.0786,0.6644 L0.0786,36.0004" id="Fill-85" fill="#FFFFFF"></path>
                <path d="M0.0786,0.6644 L0.0786,36.0004" id="Stroke-87" stroke="#E1E4E5" stroke-width="4" stroke-linecap="round" stroke-linejoin="round"></path>
            </g>
            <g id="Group-92" transform="translate(504.000000, 219.825000)">
                <path d="M0.4336,114.0004 L0.4336,0.1814" id="Fill-89" fill="#FFFFFF"></path>
                <path d="M0.4336,114.0004 L0.4336,0.1814" id="Stroke-91" stroke="#E1E4E5" stroke-width="4" stroke-linecap="round" stroke-linejoin="round"></path>
            </g>
            <g id="Group-96" transform="translate(622.000000, 219.825000)">
                <path d="M0.5884,114.0004 L0.5884,0.1814" id="Fill-93" fill="#FFFFFF"></path>
                <path d="M0.5884,114.0004 L0.5884,0.1814" id="Stroke-95" stroke="#E1E4E5" stroke-width="4" stroke-linecap="round" stroke-linejoin="round"></path>
            </g>
            <mask id="mask-2" fill="white">
                <use xlink:href="#path-1"></use>
            </mask>
            <g id="Clip-98"></g>
            <polygon id="Fill-97" fill="#FFFFFF" mask="url(#mask-2)" points="484.805 269.313 642.153 269.313 642.153 251.095 484.805 251.095"></polygon>
            <polygon id="Stroke-99" stroke="#E1E4E5" stroke-width="4" stroke-linecap="round" stroke-linejoin="round" mask="url(#mask-2)" points="484.805 269.313 642.153 269.313 642.153 251.095 484.805 251.095"></polygon>
            <polygon id="Fill-100" fill="#FFFFFF" mask="url(#mask-2)" points="484.805 242.811 642.153 242.811 642.153 223.489 484.805 223.489"></polygon>
            <polygon id="Stroke-101" stroke="#E1E4E5" stroke-width="4" stroke-linecap="round" stroke-linejoin="round" mask="url(#mask-2)" points="484.805 242.811 642.153 242.811 642.153 223.489 484.805 223.489"></polygon>
            <polygon id="Fill-102" fill="#FFFFFF" mask="url(#mask-2)" points="469.345 298.573 657.612 298.573 657.612 284.77 469.345 284.77"></polygon>
            <polygon id="Stroke-103" stroke="#E1E4E5" stroke-width="4" stroke-linecap="round" stroke-linejoin="round" mask="url(#mask-2)" points="469.345 298.573 657.612 298.573 657.612 284.77 469.345 284.77"></polygon>
        </g>
    </g>
</svg>