<?xml version="1.0" encoding="UTF-8"?>
<svg width="1062px" height="296px" viewBox="0 0 1062 296" version="1.1" xmlns="http://www.w3.org/2000/svg" xmlns:xlink="http://www.w3.org/1999/xlink">
    <!-- Generator: Sketch 48.2 (47327) - http://www.bohemiancoding.com/sketch -->
    <title>Style 7</title>
    <desc>Created with Sketch.</desc>
    <defs></defs>
    <g id="Background-Images" stroke="none" stroke-width="1" fill="none" fill-rule="evenodd" transform="translate(-2884.000000, -1538.000000)">
        <g id="Style-7" transform="translate(2886.000000, 1540.000000)">
            <g id="Group-4" transform="translate(238.000000, 84.040000)">
                <path d="M1.1541,33.6421 C1.9221,23.8381 6.9141,14.4381 14.6061,8.3121 C22.2991,2.1871 32.5791,-0.5739 42.3041,0.8741 C38.8831,3.1781 1.1291,43.2981 1.4901,43.1371 C0.1771,36.7311 0.8951,29.9241 3.5131,23.9321" id="Fill-1" fill="#FFFFFF"></path>
                <path d="M1.1541,33.6421 C1.9221,23.8381 6.9141,14.4381 14.6061,8.3121 C22.2991,2.1871 32.5791,-0.5739 42.3041,0.8741 C38.8831,3.1781 1.1291,43.2981 1.4901,43.1371 C0.1771,36.7311 0.8951,29.9241 3.5131,23.9321" id="Stroke-3" stroke="#E1E4E5" stroke-width="4" stroke-linecap="round" stroke-linejoin="round"></path>
            </g>
            <g id="Group-8" transform="translate(183.000000, 119.040000)">
                <path d="M5.1463,16.4126 C10.5943,8.2266 19.5373,2.4516 29.2393,0.8526 C38.9413,-0.7454 49.2633,1.8556 57.0493,7.8606 C52.9393,8.2046 0.4173,24.8316 0.8113,24.8666 C2.7883,18.6336 6.7323,13.0396 11.9403,9.0846" id="Fill-5" fill="#FFFFFF"></path>
                <path d="M5.1463,16.4126 C10.5943,8.2266 19.5373,2.4516 29.2393,0.8526 C38.9413,-0.7454 49.2633,1.8556 57.0493,7.8606 C52.9393,8.2046 0.4173,24.8316 0.8113,24.8666 C2.7883,18.6336 6.7323,13.0396 11.9403,9.0846" id="Stroke-7" stroke="#E1E4E5" stroke-width="4" stroke-linecap="round" stroke-linejoin="round"></path>
            </g>
            <path d="M236.9959,125.0864 C230.8389,117.3944 227.6849,107.3584 228.3379,97.5274 C228.9889,87.6964 233.4399,78.1664 240.5589,71.3554 C240.4579,74.0734 238.0839,122.4954 236.9959,125.0864" id="Fill-9" fill="#FFFFFF"></path>
            <path d="M236.9959,125.0864 C230.8389,117.3944 227.6849,107.3584 228.3379,97.5274 C228.9889,87.6964 233.4399,78.1664 240.5589,71.3554 C240.4579,74.0734 238.0839,122.4954 236.9959,125.0864 Z" id="Stroke-11" stroke="#E1E4E5" stroke-width="4" stroke-linecap="round" stroke-linejoin="round"></path>
            <path d="M214.1287,178.2788 C210.7317,167.7228 211.4327,155.9058 216.0547,145.8258 C220.6757,135.7468 229.1727,127.5038 239.3877,123.1888 C238.1927,126.0078 216.3107,175.9898 214.1287,178.2788" id="Fill-13" fill="#FFFFFF"></path>
            <path d="M214.1287,178.2788 C210.7317,167.7228 211.4327,155.9058 216.0547,145.8258 C220.6757,135.7468 229.1727,127.5038 239.3877,123.1888 C238.1927,126.0078 216.3107,175.9898 214.1287,178.2788 Z" id="Stroke-15" stroke="#E1E4E5" stroke-width="4" stroke-linecap="round" stroke-linejoin="round"></path>
            <path d="M237.0282,125.603 L287.0802,140.489 C287.0802,140.489 274.4812,112.915 237.0282,125.603" id="Fill-17" fill="#FFFFFF"></path>
            <path d="M237.0282,125.603 L287.0802,140.489 C287.0802,140.489 274.4812,112.915 237.0282,125.603 Z" id="Stroke-19" stroke="#E1E4E5" stroke-width="4" stroke-linecap="round" stroke-linejoin="round"></path>
            <path d="M268.7615,241.7504 C268.7615,241.7504 259.4335,144.6864 233.4585,121.8734 C244.4335,154.6534 255.6655,205.4934 260.3455,241.9384 L268.7615,241.7504 Z" id="Fill-21" fill="#FFFFFF"></path>
            <path d="M268.7615,241.7504 C268.7615,241.7504 259.4335,144.6864 233.4585,121.8734 C244.4335,154.6534 255.6655,205.4934 260.3455,241.9384 L268.7615,241.7504 Z" id="Stroke-23" stroke="#E1E4E5" stroke-width="4" stroke-linecap="round" stroke-linejoin="round"></path>
            <g id="Group-28" transform="translate(228.000000, 105.040000)">
                <path d="M50.9031,1.9087 C39.8041,-0.5543 27.7241,1.7907 18.3541,8.2267 C8.9831,14.6637 2.4601,25.0967 0.7751,36.3407 C4.4781,33.3347 61.5881,5.1417 61.2881,5.4867 C54.6471,1.8717 46.8801,0.3657 39.3701,1.2377" id="Fill-25" fill="#FFFFFF"></path>
                <path d="M50.9031,1.9087 C39.8041,-0.5543 27.7241,1.7907 18.3541,8.2267 C8.9831,14.6637 2.4601,25.0967 0.7751,36.3407 C4.4781,33.3347 61.5881,5.1417 61.2881,5.4867 C54.6471,1.8717 46.8801,0.3657 39.3701,1.2377" id="Stroke-27" stroke="#E1E4E5" stroke-width="4" stroke-linecap="round" stroke-linejoin="round"></path>
            </g>
            <g id="Group-32" transform="translate(287.000000, 93.040000)">
                <path d="M61.5799,11.0151 C53.1499,3.3881 41.4899,-0.5449 30.1629,0.4171 C18.8359,1.3801 8.0069,7.2251 0.9849,16.1661 C5.6889,15.3841 69.2699,19.1081 68.8389,19.2591 C64.8529,12.8341 58.8459,7.6861 51.8869,4.7311" id="Fill-29" fill="#FFFFFF"></path>
                <path d="M61.5799,11.0151 C53.1499,3.3881 41.4899,-0.5449 30.1629,0.4171 C18.8359,1.3801 8.0069,7.2251 0.9849,16.1661 C5.6889,15.3841 69.2699,19.1081 68.8389,19.2591 C64.8529,12.8341 58.8459,7.6861 51.8869,4.7311" id="Stroke-31" stroke="#E1E4E5" stroke-width="4" stroke-linecap="round" stroke-linejoin="round"></path>
            </g>
            <path d="M331.6199,159.4262 C332.4309,146.6322 328.2899,133.5872 320.2489,123.6032 C312.2079,113.6192 300.3459,106.7932 287.6729,104.8592 C289.8119,107.6782 328.5239,157.4802 331.6199,159.4262" id="Fill-33" fill="#FFFFFF"></path>
            <path d="M331.6199,159.4262 C332.4309,146.6322 328.2899,133.5872 320.2489,123.6032 C312.2079,113.6192 300.3459,106.7932 287.6729,104.8592 C289.8119,107.6782 328.5239,157.4802 331.6199,159.4262 Z" id="Stroke-35" stroke="#E1E4E5" stroke-width="4" stroke-linecap="round" stroke-linejoin="round"></path>
            <path d="M294.2713,109.7241 L288.7763,104.7021 C288.7763,104.7021 271.9843,138.2581 269.4263,199.6821 C267.9453,235.2611 268.8553,241.7421 268.8553,241.7421 L279.3643,241.9391 C279.3643,241.9391 277.1843,233.7281 278.6973,199.1251 C281.2093,141.6621 294.2713,109.7241 294.2713,109.7241" id="Fill-37" fill="#FFFFFF"></path>
            <path d="M294.2713,109.7241 L288.7763,104.7021 C288.7763,104.7021 271.9843,138.2581 269.4263,199.6821 C267.9453,235.2611 268.8553,241.7421 268.8553,241.7421 L279.3643,241.9391 C279.3643,241.9391 277.1843,233.7281 278.6973,199.1251 C281.2093,141.6621 294.2713,109.7241 294.2713,109.7241 Z" id="Stroke-39" stroke="#E1E4E5" stroke-width="4" stroke-linecap="round" stroke-linejoin="round"></path>
            <path d="M288.243,108.0932 C283.25,94.9892 273.214,83.8782 260.681,77.5832 C248.15,71.2882 233.245,69.8702 219.752,73.6902 C223.159,75.5282 284.279,107.5592 288.243,108.0932" id="Fill-41" fill="#FFFFFF"></path>
            <path d="M288.243,108.0932 C283.25,94.9892 273.214,83.8782 260.681,77.5832 C248.15,71.2882 233.245,69.8702 219.752,73.6902 C223.159,75.5282 284.279,107.5592 288.243,108.0932 Z" id="Stroke-43" stroke="#E1E4E5" stroke-width="4" stroke-linecap="round" stroke-linejoin="round"></path>
            <path d="M289.1873,106.3286 L275.8603,41.1616 C275.8603,41.1616 309.4503,60.2126 289.1873,106.3286" id="Fill-45" fill="#FFFFFF"></path>
            <path d="M289.1873,106.3286 L275.8603,41.1616 C275.8603,41.1616 309.4503,60.2126 289.1873,106.3286 Z" id="Stroke-47" stroke="#E1E4E5" stroke-width="4" stroke-linecap="round" stroke-linejoin="round"></path>
            <g id="Group-52" transform="translate(408.000000, 251.040000)">
                <path d="M0.2625,1.397 L93.2795,0.101" id="Fill-49" fill="#FFFFFF"></path>
                <path d="M0.2625,1.397 L93.2795,0.101" id="Stroke-51" stroke="#E1E4E5" stroke-width="4" stroke-linecap="round" stroke-linejoin="round"></path>
            </g>
            <path d="M554.3299,241.9389 L427.5899,241.9389 C427.5899,206.9399 455.9619,178.5689 490.9599,178.5689 C525.9579,178.5689 554.3299,206.9399 554.3299,241.9389" id="Fill-53" fill="#FFFFFF"></path>
            <path d="M554.3299,241.9389 L427.5899,241.9389 C427.5899,206.9399 455.9619,178.5689 490.9599,178.5689 C525.9579,178.5689 554.3299,206.9399 554.3299,241.9389 Z" id="Stroke-55" stroke="#E1E4E5" stroke-width="4" stroke-linecap="round" stroke-linejoin="round"></path>
            <g id="Group-60" transform="translate(2.000000, 241.040000)">
                <path d="M0.0916,0.8989 L1055.2256,0.8989" id="Fill-57" fill="#FFFFFF"></path>
                <path d="M0.0916,0.8989 L1055.2256,0.8989" id="Stroke-59" stroke="#E1E4E5" stroke-width="4" stroke-linecap="round" stroke-linejoin="round"></path>
            </g>
            <g id="Group-64" transform="translate(0.000000, 219.040000)">
                <path d="M-0.0002,45.1714 L417.5158,45.2624 C342.5788,18.0324 125.2488,0.6784 -0.0002,0.6784" id="Fill-61" fill="#FFFFFF"></path>
                <path d="M-0.0002,45.1714 L417.5158,45.2624 C342.5788,18.0324 125.2488,0.6784 -0.0002,0.6784" id="Stroke-63" stroke="#E1E4E5" stroke-width="4" stroke-linecap="round" stroke-linejoin="round"></path>
            </g>
            <g id="Group-68" transform="translate(622.000000, 112.040000)">
                <path d="M0.4861,32.1421 C1.2161,22.8061 5.9711,13.8541 13.2971,8.0201 C20.6221,2.1871 30.4121,-0.4419 39.6741,0.9371 C36.4161,3.1301 0.4621,41.3381 0.8061,41.1841 C-0.4439,35.0831 0.2391,28.6011 2.7331,22.8951" id="Fill-65" fill="#FFFFFF"></path>
                <path d="M0.4861,32.1421 C1.2161,22.8061 5.9711,13.8541 13.2971,8.0201 C20.6221,2.1871 30.4121,-0.4419 39.6741,0.9371 C36.4161,3.1301 0.4621,41.3381 0.8061,41.1841 C-0.4439,35.0831 0.2391,28.6011 2.7331,22.8951" id="Stroke-67" stroke="#E1E4E5" stroke-width="4" stroke-linecap="round" stroke-linejoin="round"></path>
            </g>
            <g id="Group-72" transform="translate(569.000000, 145.040000)">
                <path d="M4.9109,16.0649 C10.0989,8.2699 18.6139,2.7709 27.8539,1.2489 C37.0949,-0.2741 46.9239,2.2029 54.3389,7.9209 C50.4249,8.2489 0.4069,24.0829 0.7819,24.1169 C2.6649,18.1799 6.4209,12.8529 11.3799,9.0859" id="Fill-69" fill="#FFFFFF"></path>
                <path d="M4.9109,16.0649 C10.0989,8.2699 18.6139,2.7709 27.8539,1.2489 C37.0949,-0.2741 46.9239,2.2029 54.3389,7.9209 C50.4249,8.2489 0.4069,24.0829 0.7819,24.1169 C2.6649,18.1799 6.4209,12.8529 11.3799,9.0859" id="Stroke-71" stroke="#E1E4E5" stroke-width="4" stroke-linecap="round" stroke-linejoin="round"></path>
            </g>
            <path d="M620.4305,151.2329 C614.5665,143.9089 611.5645,134.3519 612.1855,124.9899 C612.8065,115.6279 617.0445,106.5509 623.8245,100.0649 C623.7285,102.6539 621.4665,148.7659 620.4305,151.2329" id="Fill-73" fill="#FFFFFF"></path>
            <path d="M620.4305,151.2329 C614.5665,143.9089 611.5645,134.3519 612.1855,124.9899 C612.8065,115.6279 617.0445,106.5509 623.8245,100.0649 C623.7285,102.6539 621.4665,148.7659 620.4305,151.2329 Z" id="Stroke-75" stroke="#E1E4E5" stroke-width="4" stroke-linecap="round" stroke-linejoin="round"></path>
            <path d="M598.6541,201.8901 C595.4191,191.8371 596.0871,180.5831 600.4871,170.9841 C604.8881,161.3851 612.9801,153.5351 622.7091,149.4271 C621.5711,152.1111 600.7321,199.7091 598.6541,201.8901" id="Fill-77" fill="#FFFFFF"></path>
            <path d="M598.6541,201.8901 C595.4191,191.8371 596.0871,180.5831 600.4871,170.9841 C604.8881,161.3851 612.9801,153.5351 622.7091,149.4271 C621.5711,152.1111 600.7321,199.7091 598.6541,201.8901 Z" id="Stroke-79" stroke="#E1E4E5" stroke-width="4" stroke-linecap="round" stroke-linejoin="round"></path>
            <path d="M620.4617,151.7251 L668.1267,165.9021 C668.1267,165.9021 656.1287,139.6431 620.4617,151.7251" id="Fill-81" fill="#FFFFFF"></path>
            <path d="M620.4617,151.7251 L668.1267,165.9021 C668.1267,165.9021 656.1287,139.6431 620.4617,151.7251 Z" id="Stroke-83" stroke="#E1E4E5" stroke-width="4" stroke-linecap="round" stroke-linejoin="round"></path>
            <path d="M650.6815,259.7895 C645.1325,225.6415 641.7985,169.8975 617.0625,148.1745 C627.5275,179.4665 638.2815,225.7605 642.6665,260.0755 C644.0535,259.3515 649.2955,260.5145 650.6815,259.7895" id="Fill-85" fill="#FFFFFF"></path>
            <path d="M650.6815,259.7895 C645.1325,225.6415 641.7985,169.8975 617.0625,148.1745 C627.5275,179.4665 638.2815,225.7605 642.6665,260.0755 C644.0535,259.3515 649.2955,260.5145 650.6815,259.7895 Z" id="Stroke-87" stroke="#E1E4E5" stroke-width="4" stroke-linecap="round" stroke-linejoin="round"></path>
            <g id="Group-92" transform="translate(599.000000, 17.040000)">
                <path d="M0.8787,40.6831 C2.2867,28.4901 8.9467,16.9931 18.8247,9.7061 C28.7027,2.4191 41.6527,-0.5499 53.7197,1.7041 C49.3447,4.4191 0.4017,52.7281 0.8597,52.5431 C-0.4813,44.4921 0.7267,36.0341 4.2697,28.6791" id="Fill-89" fill="#FFFFFF"></path>
                <path d="M0.8787,40.6831 C2.2867,28.4901 8.9467,16.9931 18.8247,9.7061 C28.7027,2.4191 41.6527,-0.5499 53.7197,1.7041 C49.3447,4.4191 0.4017,52.7281 0.8597,52.5431 C-0.4813,44.4921 0.7267,36.0341 4.2697,28.6791" id="Stroke-91" stroke="#E1E4E5" stroke-width="4" stroke-linecap="round" stroke-linejoin="round"></path>
            </g>
            <g id="Group-96" transform="translate(529.000000, 58.040000)">
                <path d="M6.4324,19.5015 C13.6054,9.5415 25.0254,2.7495 37.2024,1.2025 C49.3784,-0.3455 62.1344,3.3745 71.5714,11.2245 C66.4274,11.4635 0.1454,29.7855 0.6344,29.8485 C3.3884,22.1635 8.5654,15.3675 15.2444,10.6735" id="Fill-93" fill="#FFFFFF"></path>
                <path d="M6.4324,19.5015 C13.6054,9.5415 25.0254,2.7495 37.2024,1.2025 C49.3784,-0.3455 62.1344,3.3745 71.5714,11.2245 C66.4274,11.4635 0.1454,29.7855 0.6344,29.8485 C3.3884,22.1635 8.5654,15.3675 15.2444,10.6735" id="Stroke-95" stroke="#E1E4E5" stroke-width="4" stroke-linecap="round" stroke-linejoin="round"></path>
            </g>
            <path d="M596.8445,66.8598 C589.5185,56.9818 586.0475,44.3188 587.3135,32.0858 C588.5795,19.8518 594.5705,8.1688 603.7645,-0.0002 C603.5135,3.3858 598.3225,63.6778 596.8445,66.8598" id="Fill-97" fill="#FFFFFF"></path>
            <path d="M596.8445,66.8598 C589.5185,56.9818 586.0475,44.3188 587.3135,32.0858 C588.5795,19.8518 594.5705,8.1688 603.7645,-0.0002 C603.5135,3.3858 598.3225,63.6778 596.8445,66.8598 Z" id="Stroke-99" stroke="#E1E4E5" stroke-width="4" stroke-linecap="round" stroke-linejoin="round"></path>
            <path d="M565.8709,132.1606 C562.1189,118.8376 563.5379,104.1286 569.7669,91.7666 C575.9959,79.4066 586.9749,69.5146 599.9169,64.6036 C598.2959,68.0646 568.6979,129.4056 565.8709,132.1606" id="Fill-101" fill="#FFFFFF"></path>
            <path d="M565.8709,132.1606 C562.1189,118.8376 563.5379,104.1286 569.7669,91.7666 C575.9959,79.4066 586.9749,69.5146 599.9169,64.6036 C598.2959,68.0646 568.6979,129.4056 565.8709,132.1606 Z" id="Stroke-103" stroke="#E1E4E5" stroke-width="4" stroke-linecap="round" stroke-linejoin="round"></path>
            <path d="M594.0516,71.2338 L598.7156,64.6878 C598.7156,64.6878 647.6106,98.8498 656.9096,160.3648 C666.2096,221.8798 662.5726,259.9298 662.5726,259.9298 L650.7456,260.0028 C650.7456,260.0028 650.6736,209.6548 647.5386,172.3888 C642.2516,109.5418 594.0516,71.2338 594.0516,71.2338" id="Fill-105" fill="#FFFFFF"></path>
            <path d="M594.0516,71.2338 L598.7156,64.6878 C598.7156,64.6878 647.6106,98.8498 656.9096,160.3648 C666.2096,221.8798 662.5726,259.9298 662.5726,259.9298 L650.7456,260.0028 C650.7456,260.0028 650.6736,209.6548 647.5386,172.3888 C642.2516,109.5418 594.0516,71.2338 594.0516,71.2338 Z" id="Stroke-107" stroke="#E1E4E5" stroke-width="4" stroke-linecap="round" stroke-linejoin="round"></path>
            <g id="Group-112" transform="translate(346.000000, 40.040000)">
                <path d="M48.5369,35.2798 C46.9899,24.4488 40.7799,14.3638 31.8049,8.1068 C22.8279,1.8498 11.2169,-0.4872 0.5189,1.8108 C4.4819,4.1268 49.2499,46.0018 48.8369,45.8468 C49.8409,38.6398 48.5609,31.1338 45.2279,24.6648" id="Fill-109" fill="#FFFFFF"></path>
                <path d="M48.5369,35.2798 C46.9899,24.4488 40.7799,14.3638 31.8049,8.1068 C22.8279,1.8498 11.2169,-0.4872 0.5189,1.8108 C4.4819,4.1268 49.2499,46.0018 48.8369,45.8468 C49.8409,38.6398 48.5609,31.1338 45.2279,24.6648" id="Stroke-111" stroke="#E1E4E5" stroke-width="4" stroke-linecap="round" stroke-linejoin="round"></path>
            </g>
            <g id="Group-116" transform="translate(394.000000, 75.040000)">
                <path d="M58.4373,16.3979 C51.8073,7.6939 41.4683,1.9159 30.5823,0.8279 C19.6943,-0.2591 8.4163,3.3599 0.1963,10.5809 C4.7853,10.6699 64.2863,25.4109 63.8503,25.4779 C61.2133,18.6969 56.4373,12.7649 50.3743,8.7419" id="Fill-113" fill="#FFFFFF"></path>
                <path d="M58.4373,16.3979 C51.8073,7.6939 41.4683,1.9159 30.5823,0.8279 C19.6943,-0.2591 8.4163,3.3599 0.1963,10.5809 C4.7853,10.6699 64.2863,25.4109 63.8503,25.4779 C61.2133,18.6969 56.4373,12.7649 50.3743,8.7419" id="Stroke-115" stroke="#E1E4E5" stroke-width="4" stroke-linecap="round" stroke-linejoin="round"></path>
            </g>
            <path d="M397.4588,83.3891 C403.7508,74.4111 406.5408,63.0441 405.1198,52.1741 C403.6988,41.3031 398.0808,31.0351 389.6928,23.9771 C389.9978,26.9891 396.0668,80.5891 397.4588,83.3891" id="Fill-117" fill="#FFFFFF"></path>
            <path d="M397.4588,83.3891 C403.7508,74.4111 406.5408,63.0441 405.1198,52.1741 C403.6988,41.3031 398.0808,31.0351 389.6928,23.9771 C389.9978,26.9891 396.0668,80.5891 397.4588,83.3891 Z" id="Stroke-119" stroke="#E1E4E5" stroke-width="4" stroke-linecap="round" stroke-linejoin="round"></path>
            <path d="M426.6219,140.8354 C429.6459,128.8734 428.0299,115.8004 422.1839,104.9354 C416.3369,94.0694 406.3169,85.5184 394.6679,81.4514 C396.1939,84.4974 424.0369,138.4474 426.6219,140.8354" id="Fill-121" fill="#FFFFFF"></path>
            <path d="M426.6219,140.8354 C429.6459,128.8734 428.0299,115.8004 422.1839,104.9354 C416.3369,94.0694 406.3169,85.5184 394.6679,81.4514 C396.1939,84.4974 424.0369,138.4474 426.6219,140.8354 Z" id="Stroke-123" stroke="#E1E4E5" stroke-width="4" stroke-linecap="round" stroke-linejoin="round"></path>
            <path d="M400.0526,87.2192 L395.7406,81.4972 C395.7406,81.4972 373.9796,110.2972 360.6746,167.9502 C348.2046,221.9872 343.5106,257.0002 343.5106,257.0002 L354.0246,255.7912 C354.0246,255.7912 362.0086,201.5322 369.5446,169.0602 C382.0596,115.1342 400.0526,87.2192 400.0526,87.2192" id="Fill-125" fill="#FFFFFF"></path>
            <path d="M400.0526,87.2192 L395.7406,81.4972 C395.7406,81.4972 373.9796,110.2972 360.6746,167.9502 C348.2046,221.9872 343.5106,257.0002 343.5106,257.0002 L354.0246,255.7912 C354.0246,255.7912 362.0086,201.5322 369.5446,169.0602 C382.0596,115.1342 400.0526,87.2192 400.0526,87.2192 Z" id="Stroke-127" stroke="#E1E4E5" stroke-width="4" stroke-linecap="round" stroke-linejoin="round"></path>
            <path d="M397.4588,83.9643 L342.9358,104.0433 C342.9358,104.0433 354.9708,72.5303 397.4588,83.9643" id="Fill-129" fill="#FFFFFF"></path>
            <path d="M397.4588,83.9643 L342.9358,104.0433 C342.9358,104.0433 354.9708,72.5303 397.4588,83.9643 Z" id="Stroke-131" stroke="#E1E4E5" stroke-width="4" stroke-linecap="round" stroke-linejoin="round"></path>
            <path d="M334.3885,256.6499 C334.3885,256.6499 335.2065,229.6389 350.7585,229.6389 C366.3105,229.6389 369.5865,247.1049 369.5865,247.1049 C369.5865,247.1049 375.0155,246.9729 379.4665,250.2289 C382.4015,252.3749 380.8645,257.0309 377.2285,257.0009 L334.3885,256.6499 Z" id="Fill-133" fill="#FFFFFF"></path>
            <path d="M334.3885,256.6499 C334.3885,256.6499 335.2065,229.6389 350.7585,229.6389 C366.3105,229.6389 369.5865,247.1049 369.5865,247.1049 C369.5865,247.1049 375.0155,246.9729 379.4665,250.2289 C382.4015,252.3749 380.8645,257.0309 377.2285,257.0009 L334.3885,256.6499 Z" id="Stroke-135" stroke="#E1E4E5" stroke-width="4" stroke-linecap="round" stroke-linejoin="round"></path>
            <g id="Group-140" transform="translate(510.000000, 252.040000)">
                <polyline id="Fill-137" fill="#FFFFFF" points="0.2537 0.397 3.2537 0.397 90.3017 0.397"></polyline>
                <polyline id="Stroke-139" stroke="#E1E4E5" stroke-width="4" stroke-linecap="round" stroke-linejoin="round" points="0.2537 0.397 3.2537 0.397 90.3017 0.397"></polyline>
            </g>
            <g id="Group-144" transform="translate(444.000000, 263.040000)">
                <path d="M0.2576,0.396 L103.1336,0.396" id="Fill-141" fill="#FFFFFF"></path>
                <path d="M0.2576,0.396 L103.1336,0.396" id="Stroke-143" stroke="#E1E4E5" stroke-width="4" stroke-linecap="round" stroke-linejoin="round"></path>
            </g>
            <g id="Group-148" transform="translate(489.000000, 274.040000)">
                <polyline id="Fill-145" fill="#FFFFFF" points="0.2547 0.895 1.7547 0.895 24.3037 0.895"></polyline>
                <polyline id="Stroke-147" stroke="#E1E4E5" stroke-width="4" stroke-linecap="round" stroke-linejoin="round" points="0.2547 0.895 1.7547 0.895 24.3037 0.895"></polyline>
            </g>
            <g id="Group-152" transform="translate(237.000000, 228.040000)">
                <path d="M0.9696,0.3481 L6.1496,13.8991" id="Fill-149" fill="#FFFFFF"></path>
                <path d="M0.9696,0.3481 L6.1496,13.8991" id="Stroke-151" stroke="#E1E4E5" stroke-width="4" stroke-linecap="round" stroke-linejoin="round"></path>
            </g>
            <g id="Group-156" transform="translate(494.000000, 227.040000)">
                <path d="M563.2255,63.8716 L0.0625,63.9996 C106.3015,25.3966 385.6575,0.7926 563.2255,0.7926" id="Fill-153" fill="#FFFFFF"></path>
                <path d="M563.2255,63.8716 L0.0625,63.9996 C106.3015,25.3966 385.6575,0.7926 563.2255,0.7926" id="Stroke-155" stroke="#E1E4E5" stroke-width="4" stroke-linecap="round" stroke-linejoin="round"></path>
            </g>
            <g id="Group-160" transform="translate(739.000000, 124.040000)">
                <path d="M11.949,1.1304 C23.376,1.0084 34.772,5.8184 42.654,14.0924 C50.537,22.3654 54.792,33.9804 54.117,45.3884 C51.098,41.6644 0.769,2.0954 0.993,2.4964 C8.273,0.3184 16.226,0.4464 23.432,2.8604" id="Fill-157" fill="#FFFFFF"></path>
                <path d="M11.949,1.1304 C23.376,1.0084 34.772,5.8184 42.654,14.0924 C50.537,22.3654 54.792,33.9804 54.117,45.3884 C51.098,41.6644 0.769,2.0954 0.993,2.4964 C8.273,0.3184 16.226,0.4464 23.432,2.8604" id="Stroke-159" stroke="#E1E4E5" stroke-width="4" stroke-linecap="round" stroke-linejoin="round"></path>
            </g>
            <g id="Group-164" transform="translate(674.000000, 102.040000)">
                <path d="M9.0145,5.8413 C18.8875,0.0863 31.1715,-1.3657 42.1135,1.9303 C53.0555,5.2253 62.4945,13.2183 67.5485,23.4683 C63.0825,21.7233 -0.2265,12.2063 0.1665,12.4453 C5.4175,6.9513 12.3955,3.1333 19.8525,1.6693" id="Fill-161" fill="#FFFFFF"></path>
                <path d="M9.0145,5.8413 C18.8875,0.0863 31.1715,-1.3657 42.1135,1.9303 C53.0555,5.2253 62.4945,13.2183 67.5485,23.4683 C63.0825,21.7233 -0.2265,12.2063 0.1665,12.4453 C5.4175,6.9513 12.3955,3.1333 19.8525,1.6693" id="Stroke-163" stroke="#E1E4E5" stroke-width="4" stroke-linecap="round" stroke-linejoin="round"></path>
            </g>
            <path d="M688.2195,165.8598 C690.0735,153.1078 696.8505,141.1348 706.8285,132.9808 C716.8075,124.8278 729.8905,120.5728 742.7565,121.2968 C740.0685,123.6268 691.6665,164.5868 688.2195,165.8598" id="Fill-165" fill="#FFFFFF"></path>
            <path d="M688.2195,165.8598 C690.0735,153.1078 696.8505,141.1348 706.8285,132.9808 C716.8075,124.8278 729.8905,120.5728 742.7565,121.2968 C740.0685,123.6268 691.6665,164.5868 688.2195,165.8598 Z" id="Stroke-167" stroke="#E1E4E5" stroke-width="4" stroke-linecap="round" stroke-linejoin="round"></path>
            <path d="M737.2576,124.7143 L743.7036,120.9123 C743.7036,120.9123 753.5136,157.4433 743.0476,218.3473 C737.8166,248.7883 735.1566,259.6883 735.1566,259.6883 L724.5146,260.0753 C724.5146,260.0753 728.3606,250.2263 734.0446,215.8773 C743.4846,158.8363 737.2576,124.7143 737.2576,124.7143" id="Fill-169" fill="#FFFFFF"></path>
            <path d="M737.2576,124.7143 L743.7036,120.9123 C743.7036,120.9123 753.5136,157.4433 743.0476,218.3473 C737.8166,248.7883 735.1566,259.6883 735.1566,259.6883 L724.5146,260.0753 C724.5146,260.0753 728.3606,250.2263 734.0446,215.8773 C743.4846,158.8363 737.2576,124.7143 737.2576,124.7143 Z" id="Stroke-171" stroke="#E1E4E5" stroke-width="4" stroke-linecap="round" stroke-linejoin="round"></path>
            <path d="M741.5252,124.3598 C749.1532,112.5048 761.3282,103.6578 774.9592,100.0638 C788.5892,96.4688 803.5442,98.1648 816.0252,104.7178 C812.2922,105.8188 745.5352,124.6558 741.5252,124.3598" id="Fill-173" fill="#FFFFFF"></path>
            <path d="M741.5252,124.3598 C749.1532,112.5048 761.3282,103.6578 774.9592,100.0638 C788.5892,96.4688 803.5442,98.1648 816.0252,104.7178 C812.2922,105.8188 745.5352,124.6558 741.5252,124.3598 Z" id="Stroke-175" stroke="#E1E4E5" stroke-width="4" stroke-linecap="round" stroke-linejoin="round"></path>
            <path d="M740.9617,122.4282 L767.5787,61.0922 C767.5787,61.0922 730.5917,72.8682 740.9617,122.4282" id="Fill-177" fill="#FFFFFF"></path>
            <path d="M740.9617,122.4282 L767.5787,61.0922 C767.5787,61.0922 730.5917,72.8682 740.9617,122.4282 Z" id="Stroke-179" stroke="#E1E4E5" stroke-width="4" stroke-linecap="round" stroke-linejoin="round"></path>
            <g id="Group-184" transform="translate(744.000000, 242.040000)">
                <path d="M0.1434,18.0356 L8.5364,0.1666" id="Fill-181" fill="#FFFFFF"></path>
                <path d="M0.1434,18.0356 L8.5364,0.1666" id="Stroke-183" stroke="#E1E4E5" stroke-width="4" stroke-linecap="round" stroke-linejoin="round"></path>
            </g>
            <g id="Group-188" transform="translate(755.000000, 248.040000)">
                <path d="M0.6502,12.0356 L8.4932,0.3536" id="Fill-185" fill="#FFFFFF"></path>
                <path d="M0.6502,12.0356 L8.4932,0.3536" id="Stroke-187" stroke="#E1E4E5" stroke-width="4" stroke-linecap="round" stroke-linejoin="round"></path>
            </g>
        </g>
    </g>
</svg>