<?xml version="1.0" encoding="UTF-8"?>
<svg width="1106px" height="225px" viewBox="0 0 1106 225" version="1.1" xmlns="http://www.w3.org/2000/svg" xmlns:xlink="http://www.w3.org/1999/xlink">
    <!-- Generator: Sketch 48.2 (47327) - http://www.bohemiancoding.com/sketch -->
    <title>Style 8</title>
    <desc>Created with Sketch.</desc>
    <defs></defs>
    <g id="Background-Images" stroke="none" stroke-width="1" fill="none" fill-rule="evenodd" transform="translate(-398.000000, -2156.000000)">
        <g id="Style-8" transform="translate(400.000000, 2157.000000)">
            <path d="M675.7593,168.048 L675.7593,197.141 L691.3703,197.141 L691.3703,149.125 L697.6003,149.125 C705.9473,149.125 712.7383,142.334 712.7383,133.987 L712.7383,107.26 C712.7383,102.948 709.2443,99.454 704.9333,99.454 C700.6223,99.454 697.1283,102.948 697.1283,107.26 L697.1283,133.515 L691.3703,133.515 L691.3703,98.272 C691.3703,93.961 687.8753,90.467 683.5643,90.467 C679.2533,90.467 675.7593,93.961 675.7593,98.272 L675.7593,152.437 L669.6903,152.437 C669.1683,152.437 668.7443,152.013 668.7443,151.491 L668.7443,136.116 C668.7443,131.806 665.2493,128.311 660.9393,128.311 C656.6283,128.311 653.1333,131.806 653.1333,136.116 L653.1333,151.491 C653.1333,160.62 660.5603,168.048 669.6903,168.048 L675.7593,168.048 Z" id="Fill-1" fill="#FFFFFF"></path>
            <path d="M675.7593,168.048 L675.7593,197.141 L691.3703,197.141 L691.3703,149.125 L697.6003,149.125 C705.9473,149.125 712.7383,142.334 712.7383,133.987 L712.7383,107.26 C712.7383,102.948 709.2443,99.454 704.9333,99.454 C700.6223,99.454 697.1283,102.948 697.1283,107.26 L697.1283,133.515 L691.3703,133.515 L691.3703,98.272 C691.3703,93.961 687.8753,90.467 683.5643,90.467 C679.2533,90.467 675.7593,93.961 675.7593,98.272 L675.7593,152.437 L669.6903,152.437 C669.1683,152.437 668.7443,152.013 668.7443,151.491 L668.7443,136.116 C668.7443,131.806 665.2493,128.311 660.9393,128.311 C656.6283,128.311 653.1333,131.806 653.1333,136.116 L653.1333,151.491 C653.1333,160.62 660.5603,168.048 669.6903,168.048 L675.7593,168.048 Z" id="Stroke-3" stroke="#E1E4E5" stroke-width="4" stroke-linecap="round" stroke-linejoin="round"></path>
            <g id="Group-8" transform="translate(683.000000, 106.141000)">
                <path d="M0.2998,-0.0002 L0.2998,5.4998" id="Fill-5" fill="#FFFFFF"></path>
                <path d="M0.2998,-0.0002 L0.2998,5.4998" id="Stroke-7" stroke="#E1E4E5" stroke-width="4" stroke-linecap="round" stroke-linejoin="round"></path>
            </g>
            <g id="Group-12" transform="translate(704.000000, 113.141000)">
                <path d="M0.7998,0.4998 L0.7998,6.0218" id="Fill-9" fill="#FFFFFF"></path>
                <path d="M0.7998,0.4998 L0.7998,6.0218" id="Stroke-11" stroke="#E1E4E5" stroke-width="4" stroke-linecap="round" stroke-linejoin="round"></path>
            </g>
            <g id="Group-16" transform="translate(704.000000, 130.141000)">
                <path d="M0.7998,-0.0002 L0.7998,3.9998" id="Fill-13" fill="#FFFFFF"></path>
                <path d="M0.7998,-0.0002 L0.7998,3.9998" id="Stroke-15" stroke="#E1E4E5" stroke-width="4" stroke-linecap="round" stroke-linejoin="round"></path>
            </g>
            <g id="Group-20" transform="translate(683.000000, 155.141000)">
                <polyline id="Fill-17" fill="#FFFFFF" points="0.2998 0.4998 0.7998 0.4998 0.7998 5.9998"></polyline>
                <polyline id="Stroke-19" stroke="#E1E4E5" stroke-width="4" stroke-linecap="round" stroke-linejoin="round" points="0.2998 0.4998 0.7998 0.4998 0.7998 5.9998"></polyline>
            </g>
            <g id="Group-24" transform="translate(660.000000, 144.141000)">
                <path d="M0.2998,-0.0002 L0.2998,3.4998" id="Fill-21" fill="#FFFFFF"></path>
                <path d="M0.2998,-0.0002 L0.2998,3.4998" id="Stroke-23" stroke="#E1E4E5" stroke-width="4" stroke-linecap="round" stroke-linejoin="round"></path>
            </g>
            <path d="M652.0566,221.1408 C652.0566,221.1408 729.1346,169.3768 837.4366,168.6498 C946.2306,167.9188 1032.7846,218.3548 1040.7576,221.0128 L652.0566,221.1408 Z" id="Fill-25" fill="#FFFFFF"></path>
            <path d="M652.0566,221.1408 C652.0566,221.1408 729.1346,169.3768 837.4366,168.6498 C946.2306,167.9188 1032.7846,218.3548 1040.7576,221.0128 L652.0566,221.1408 Z" id="Stroke-27" stroke="#E1E4E5" stroke-width="4" stroke-linecap="round" stroke-linejoin="round"></path>
            <path d="M67.9087,220.9748 C67.9087,220.9748 144.9847,167.7638 253.2887,167.7638 C326.7997,167.7638 397.4227,210.6408 496.1337,210.6408 C568.1157,210.6408 608.8287,194.6408 690.1337,194.6408 C787.6307,194.6408 862.4107,220.1218 865.4667,221.1408 L67.9087,220.9748 Z" id="Fill-29" fill="#FFFFFF"></path>
            <path d="M67.9087,220.9748 C67.9087,220.9748 144.9847,167.7638 253.2887,167.7638 C326.7997,167.7638 397.4227,210.6408 496.1337,210.6408 C568.1157,210.6408 608.8287,194.6408 690.1337,194.6408 C787.6307,194.6408 862.4107,220.1218 865.4667,221.1408 L67.9087,220.9748 Z" id="Stroke-31" stroke="#E1E4E5" stroke-width="4" stroke-linecap="round" stroke-linejoin="round"></path>
            <g id="Group-36" transform="translate(0.000000, 221.141000)">
                <path d="M0,-0.0002 L1101.606,-0.0002" id="Fill-33" fill="#FFFFFF"></path>
                <path d="M0,-0.0002 L1101.606,-0.0002" id="Stroke-35" stroke="#E1E4E5" stroke-width="4" stroke-linecap="round" stroke-linejoin="round"></path>
            </g>
            <path d="M592.0239,55.9973 C592.0239,75.8783 575.9069,91.9953 556.0259,91.9953 C536.1449,91.9953 520.0269,75.8783 520.0269,55.9973 C520.0269,36.1153 536.1449,19.9983 556.0259,19.9983 C575.9069,19.9983 592.0239,36.1153 592.0239,55.9973" id="Fill-37" fill="#FFFFFF"></path>
            <path d="M592.0239,55.9973 C592.0239,75.8783 575.9069,91.9953 556.0259,91.9953 C536.1449,91.9953 520.0269,75.8783 520.0269,55.9973 C520.0269,36.1153 536.1449,19.9983 556.0259,19.9983 C575.9069,19.9983 592.0239,36.1153 592.0239,55.9973 Z" id="Stroke-39" stroke="#E1E4E5" stroke-width="4" stroke-linecap="round" stroke-linejoin="round"></path>
            <g id="Group-44" transform="translate(616.000000, 62.141000)">
                <path d="M0.0225,0.3553 L24.0215,0.3553" id="Fill-41" fill="#FFFFFF"></path>
                <path d="M0.0225,0.3553 L24.0215,0.3553" id="Stroke-43" stroke="#E1E4E5" stroke-width="4" stroke-linecap="round" stroke-linejoin="round"></path>
            </g>
            <g id="Group-48" transform="translate(656.000000, 60.141000)">
                <path d="M0.52,0.8553 L8.02,0.8553" id="Fill-45" fill="#FFFFFF"></path>
                <path d="M0.52,0.8553 L8.02,0.8553" id="Stroke-47" stroke="#E1E4E5" stroke-width="4" stroke-linecap="round" stroke-linejoin="round"></path>
            </g>
            <g id="Group-52" transform="translate(574.000000, 108.141000)">
                <path d="M0.0244,0.8533 L7.5244,0.8533" id="Fill-49" fill="#FFFFFF"></path>
                <path d="M0.0244,0.8533 L7.5244,0.8533" id="Stroke-51" stroke="#E1E4E5" stroke-width="4" stroke-linecap="round" stroke-linejoin="round"></path>
            </g>
            <g id="Group-56" transform="translate(599.000000, 0.141000)">
                <path d="M0.5229,0.8582 L8.0229,0.8582" id="Fill-53" fill="#FFFFFF"></path>
                <path d="M0.5229,0.8582 L8.0229,0.8582" id="Stroke-55" stroke="#E1E4E5" stroke-width="4" stroke-linecap="round" stroke-linejoin="round"></path>
            </g>
            <g id="Group-60" transform="translate(465.000000, 61.141000)">
                <path d="M0.0293,0.8563 L25.7043,0.8563" id="Fill-57" fill="#FFFFFF"></path>
                <path d="M0.0293,0.8563 L25.7043,0.8563" id="Stroke-59" stroke="#E1E4E5" stroke-width="4" stroke-linecap="round" stroke-linejoin="round"></path>
            </g>
            <g id="Group-64" transform="translate(438.000000, 61.141000)">
                <path d="M0.5312,0.8563 L15.2062,0.8563" id="Fill-61" fill="#FFFFFF"></path>
                <path d="M0.5312,0.8563 L15.2062,0.8563" id="Stroke-63" stroke="#E1E4E5" stroke-width="4" stroke-linecap="round" stroke-linejoin="round"></path>
            </g>
            <g id="Group-68" transform="translate(487.000000, 40.141000)">
                <path d="M0.5283,0.3572 L12.5283,0.3572" id="Fill-65" fill="#FFFFFF"></path>
                <path d="M0.5283,0.3572 L12.5283,0.3572" id="Stroke-67" stroke="#E1E4E5" stroke-width="4" stroke-linecap="round" stroke-linejoin="round"></path>
            </g>
            <g id="Group-72" transform="translate(477.000000, 81.141000)">
                <path d="M0.0288,0.3543 L25.5718,0.3543" id="Fill-69" fill="#FFFFFF"></path>
                <path d="M0.0288,0.3543 L25.5718,0.3543" id="Stroke-71" stroke="#E1E4E5" stroke-width="4" stroke-linecap="round" stroke-linejoin="round"></path>
            </g>
            <g id="Group-76" transform="translate(613.000000, 41.141000)">
                <path d="M0.0225,0.8563 L9.1465,0.8563" id="Fill-73" fill="#FFFFFF"></path>
                <path d="M0.0225,0.8563 L9.1465,0.8563" id="Stroke-75" stroke="#E1E4E5" stroke-width="4" stroke-linecap="round" stroke-linejoin="round"></path>
            </g>
            <g id="Group-80" transform="translate(607.000000, 83.141000)">
                <path d="M0.0229,0.3543 L16.5899,0.3543" id="Fill-77" fill="#FFFFFF"></path>
                <path d="M0.0229,0.3543 L16.5899,0.3543" id="Stroke-79" stroke="#E1E4E5" stroke-width="4" stroke-linecap="round" stroke-linejoin="round"></path>
            </g>
            <path d="M292.1084,161.5959 L292.1084,221.1409 L324.0594,221.1409 L324.0594,122.8669 L336.8124,122.8669 C353.8964,122.8669 367.7954,108.9669 367.7954,91.8839 L367.7954,37.1789 C367.7954,28.3559 360.6434,21.2029 351.8194,21.2029 C342.9964,21.2029 335.8444,28.3559 335.8444,37.1789 L335.8444,90.9149 L324.0594,90.9149 L324.0594,18.7839 C324.0594,9.9599 316.9074,2.8079 308.0844,2.8079 C299.2614,2.8079 292.1084,9.9599 292.1084,18.7839 L292.1084,129.6449 L279.6874,129.6449 C278.6204,129.6449 277.7514,128.7769 277.7514,127.7079 L277.7514,96.2409 C277.7514,87.4169 270.5984,80.2649 261.7754,80.2649 C252.9524,80.2649 245.7994,87.4169 245.7994,96.2409 L245.7994,127.7079 C245.7994,146.3949 261.0024,161.5959 279.6874,161.5959 L292.1084,161.5959 Z" id="Fill-81" fill="#FFFFFF"></path>
            <path d="M292.1084,161.5959 L292.1084,221.1409 L324.0594,221.1409 L324.0594,122.8669 L336.8124,122.8669 C353.8964,122.8669 367.7954,108.9669 367.7954,91.8839 L367.7954,37.1789 C367.7954,28.3559 360.6434,21.2029 351.8194,21.2029 C342.9964,21.2029 335.8444,28.3559 335.8444,37.1789 L335.8444,90.9149 L324.0594,90.9149 L324.0594,18.7839 C324.0594,9.9599 316.9074,2.8079 308.0844,2.8079 C299.2614,2.8079 292.1084,9.9599 292.1084,18.7839 L292.1084,129.6449 L279.6874,129.6449 C278.6204,129.6449 277.7514,128.7769 277.7514,127.7079 L277.7514,96.2409 C277.7514,87.4169 270.5984,80.2649 261.7754,80.2649 C252.9524,80.2649 245.7994,87.4169 245.7994,96.2409 L245.7994,127.7079 C245.7994,146.3949 261.0024,161.5959 279.6874,161.5959 L292.1084,161.5959 Z" id="Stroke-83" stroke="#E1E4E5" stroke-width="4" stroke-linecap="round" stroke-linejoin="round"></path>
            <g id="Group-88" transform="translate(302.000000, 26.141000)">
                <path d="M0.7998,0.4998 L0.7998,15.8478" id="Fill-85" fill="#FFFFFF"></path>
                <path d="M0.7998,0.4998 L0.7998,15.8478" id="Stroke-87" stroke="#E1E4E5" stroke-width="4" stroke-linecap="round" stroke-linejoin="round"></path>
            </g>
            <g id="Group-92" transform="translate(302.000000, 137.141000)">
                <path d="M0.7998,0.8338 L0.7998,16.1818" id="Fill-89" fill="#FFFFFF"></path>
                <path d="M0.7998,0.8338 L0.7998,16.1818" id="Stroke-91" stroke="#E1E4E5" stroke-width="4" stroke-linecap="round" stroke-linejoin="round"></path>
            </g>
            <g id="Group-96" transform="translate(302.000000, 99.141000)">
                <path d="M0.7998,0.8338 L0.7998,10.1818" id="Fill-93" fill="#FFFFFF"></path>
                <path d="M0.7998,0.8338 L0.7998,10.1818" id="Stroke-95" stroke="#E1E4E5" stroke-width="4" stroke-linecap="round" stroke-linejoin="round"></path>
            </g>
            <g id="Group-100" transform="translate(314.000000, 47.141000)">
                <path d="M0.1333,0.8338 L0.1333,9.4998" id="Fill-97" fill="#FFFFFF"></path>
                <path d="M0.1333,0.8338 L0.1333,9.4998" id="Stroke-99" stroke="#E1E4E5" stroke-width="4" stroke-linecap="round" stroke-linejoin="round"></path>
            </g>
            <g id="Group-104" transform="translate(356.000000, 68.141000)">
                <path d="M0.7998,0.4998 L0.7998,9.1668" id="Fill-101" fill="#FFFFFF"></path>
                <path d="M0.7998,0.4998 L0.7998,9.1668" id="Stroke-103" stroke="#E1E4E5" stroke-width="4" stroke-linecap="round" stroke-linejoin="round"></path>
            </g>
            <g id="Group-108" transform="translate(255.000000, 100.141000)">
                <path d="M0.7998,-0.0002 L0.7998,8.6668" id="Fill-105" fill="#FFFFFF"></path>
                <path d="M0.7998,-0.0002 L0.7998,8.6668" id="Stroke-107" stroke="#E1E4E5" stroke-width="4" stroke-linecap="round" stroke-linejoin="round"></path>
            </g>
            <g id="Group-112" transform="translate(314.000000, 114.141000)">
                <path d="M0.7998,0.9168 L0.7998,7.4168" id="Fill-109" fill="#FFFFFF"></path>
                <path d="M0.7998,0.9168 L0.7998,7.4168" id="Stroke-111" stroke="#E1E4E5" stroke-width="4" stroke-linecap="round" stroke-linejoin="round"></path>
            </g>
            <g id="Group-116" transform="translate(346.000000, 47.141000)">
                <path d="M0.1333,0.2498 L0.1333,6.7498" id="Fill-113" fill="#FFFFFF"></path>
                <path d="M0.1333,0.2498 L0.1333,6.7498" id="Stroke-115" stroke="#E1E4E5" stroke-width="4" stroke-linecap="round" stroke-linejoin="round"></path>
            </g>
            <g id="Group-120" transform="translate(304.000000, 62.141000)">
                <path d="M0.1333,0.4998 L0.1333,4.5558" id="Fill-117" fill="#FFFFFF"></path>
                <path d="M0.1333,0.4998 L0.1333,4.5558" id="Stroke-119" stroke="#E1E4E5" stroke-width="4" stroke-linecap="round" stroke-linejoin="round"></path>
            </g>
            <g id="Group-124" transform="translate(346.000000, 84.141000)">
                <path d="M0.1333,0.7781 L0.1333,4.8341" id="Fill-121" fill="#FFFFFF"></path>
                <path d="M0.1333,0.7781 L0.1333,4.8341" id="Stroke-123" stroke="#E1E4E5" stroke-width="4" stroke-linecap="round" stroke-linejoin="round"></path>
            </g>
            <g id="Group-128" transform="translate(268.000000, 118.141000)">
                <path d="M0.2998,0.9451 L0.2998,5.0001" id="Fill-125" fill="#FFFFFF"></path>
                <path d="M0.2998,0.9451 L0.2998,5.0001" id="Stroke-127" stroke="#E1E4E5" stroke-width="4" stroke-linecap="round" stroke-linejoin="round"></path>
            </g>
            <g id="Group-132" transform="translate(314.000000, 77.141000)">
                <path d="M0.7998,0.1668 L0.7998,11.5198" id="Fill-129" fill="#FFFFFF"></path>
                <path d="M0.7998,0.1668 L0.7998,11.5198" id="Stroke-131" stroke="#E1E4E5" stroke-width="4" stroke-linecap="round" stroke-linejoin="round"></path>
            </g>
            <g id="Group-136" transform="translate(314.000000, 153.141000)">
                <path d="M0.7998,0.8338 L0.7998,12.1868" id="Fill-133" fill="#FFFFFF"></path>
                <path d="M0.7998,0.8338 L0.7998,12.1868" id="Stroke-135" stroke="#E1E4E5" stroke-width="4" stroke-linecap="round" stroke-linejoin="round"></path>
            </g>
            <path d="M408.9136,154.4738 L417.4666,154.4738 L417.4666,221.1408 L439.4666,221.1408 L439.4666,181.4738 L449.2466,181.4738 C461.0106,181.4738 470.5806,171.9038 470.5806,160.1408 L470.5806,143.8078 C470.5806,137.7328 465.6556,132.8078 459.5806,132.8078 C453.5056,132.8078 448.5806,137.7328 448.5806,143.8078 L448.5806,159.4738 L439.4666,159.4738 L439.4666,98.8078 C439.4666,92.7328 434.5416,87.8078 428.4666,87.8078 C422.3916,87.8078 417.4666,92.7328 417.4666,98.8078 L417.4666,132.4738 L408.9136,132.4738 C408.1786,132.4738 407.5806,131.8758 407.5806,131.1408 L407.5806,109.4738 C407.5806,103.3988 402.6556,98.4738 396.5806,98.4738 C390.5056,98.4738 385.5806,103.3988 385.5806,109.4738 L385.5806,131.1408 C385.5806,144.0068 396.0476,154.4738 408.9136,154.4738" id="Fill-137" fill="#FFFFFF"></path>
            <path d="M408.9136,154.4738 L417.4666,154.4738 L417.4666,221.1408 L439.4666,221.1408 L439.4666,181.4738 L449.2466,181.4738 C461.0106,181.4738 470.5806,171.9038 470.5806,160.1408 L470.5806,143.8078 C470.5806,137.7328 465.6556,132.8078 459.5806,132.8078 C453.5056,132.8078 448.5806,137.7328 448.5806,143.8078 L448.5806,159.4738 L439.4666,159.4738 L439.4666,98.8078 C439.4666,92.7328 434.5416,87.8078 428.4666,87.8078 C422.3916,87.8078 417.4666,92.7328 417.4666,98.8078 L417.4666,132.4738 L408.9136,132.4738 C408.1786,132.4738 407.5806,131.8758 407.5806,131.1408 L407.5806,109.4738 C407.5806,103.3988 402.6556,98.4738 396.5806,98.4738 C390.5056,98.4738 385.5806,103.3988 385.5806,109.4738 L385.5806,131.1408 C385.5806,144.0068 396.0476,154.4738 408.9136,154.4738 Z" id="Stroke-139" stroke="#E1E4E5" stroke-width="4" stroke-linecap="round" stroke-linejoin="round"></path>
            <g id="Group-144" transform="translate(426.000000, 104.141000)">
                <path d="M0.2998,0.4998 L0.2998,6.9998" id="Fill-141" fill="#FFFFFF"></path>
                <path d="M0.2998,0.4998 L0.2998,6.9998" id="Stroke-143" stroke="#E1E4E5" stroke-width="4" stroke-linecap="round" stroke-linejoin="round"></path>
            </g>
            <g id="Group-148" transform="translate(431.000000, 130.141000)">
                <path d="M0.2998,-0.0002 L0.2998,4.9998" id="Fill-145" fill="#FFFFFF"></path>
                <path d="M0.2998,-0.0002 L0.2998,4.9998" id="Stroke-147" stroke="#E1E4E5" stroke-width="4" stroke-linecap="round" stroke-linejoin="round"></path>
            </g>
            <g id="Group-152" transform="translate(427.000000, 151.141000)">
                <path d="M0.2998,-0.0002 L0.2998,4.6098" id="Fill-149" fill="#FFFFFF"></path>
                <path d="M0.2998,-0.0002 L0.2998,4.6098" id="Stroke-151" stroke="#E1E4E5" stroke-width="4" stroke-linecap="round" stroke-linejoin="round"></path>
            </g>
            <g id="Group-156" transform="translate(392.000000, 114.141000)">
                <path d="M0.7998,0.4998 L0.7998,6.4998" id="Fill-153" fill="#FFFFFF"></path>
                <path d="M0.7998,0.4998 L0.7998,6.4998" id="Stroke-155" stroke="#E1E4E5" stroke-width="4" stroke-linecap="round" stroke-linejoin="round"></path>
            </g>
            <g id="Group-160" transform="translate(399.000000, 125.141000)">
                <path d="M0.7998,0.4998 L0.7998,6.4998" id="Fill-157" fill="#FFFFFF"></path>
                <path d="M0.7998,0.4998 L0.7998,6.4998" id="Stroke-159" stroke="#E1E4E5" stroke-width="4" stroke-linecap="round" stroke-linejoin="round"></path>
            </g>
            <g id="Group-164" transform="translate(457.000000, 144.141000)">
                <path d="M0.2998,0.4998 L0.2998,7.5178" id="Fill-161" fill="#FFFFFF"></path>
                <path d="M0.2998,0.4998 L0.2998,7.5178" id="Stroke-163" stroke="#E1E4E5" stroke-width="4" stroke-linecap="round" stroke-linejoin="round"></path>
            </g>
            <g id="Group-168" transform="translate(463.000000, 158.141000)">
                <path d="M0.2998,-0.0002 L0.2998,2.4998" id="Fill-165" fill="#FFFFFF"></path>
                <path d="M0.2998,-0.0002 L0.2998,2.4998" id="Stroke-167" stroke="#E1E4E5" stroke-width="4" stroke-linecap="round" stroke-linejoin="round"></path>
            </g>
            <path d="M773.7998,158.4738 L782.3528,158.4738 L782.3528,221.1408 L804.3528,221.1408 L804.3528,200.1408 L805.2928,200.1408 C820.2768,200.1408 832.4668,187.9508 832.4668,172.9668 L832.4668,103.1408 C832.4668,97.0658 827.5418,92.1408 821.4668,92.1408 C815.3918,92.1408 810.4668,97.0658 810.4668,103.1408 L810.4668,172.9668 C810.4668,175.8198 808.1458,178.1408 805.2928,178.1408 L804.3528,178.1408 L804.3528,63.8078 C804.3528,57.7328 799.4278,52.8078 793.3528,52.8078 C787.2778,52.8078 782.3528,57.7328 782.3528,63.8078 L782.3528,136.4738 L773.7998,136.4738 C773.0648,136.4738 772.4668,135.8758 772.4668,135.1408 L772.4668,98.1408 C772.4668,92.0658 767.5418,87.1408 761.4668,87.1408 C755.3918,87.1408 750.4668,92.0658 750.4668,98.1408 L750.4668,135.1408 C750.4668,148.0068 760.9338,158.4738 773.7998,158.4738" id="Fill-169" fill="#FFFFFF"></path>
            <path d="M773.7998,158.4738 L782.3528,158.4738 L782.3528,221.1408 L804.3528,221.1408 L804.3528,200.1408 L805.2928,200.1408 C820.2768,200.1408 832.4668,187.9508 832.4668,172.9668 L832.4668,103.1408 C832.4668,97.0658 827.5418,92.1408 821.4668,92.1408 C815.3918,92.1408 810.4668,97.0658 810.4668,103.1408 L810.4668,172.9668 C810.4668,175.8198 808.1458,178.1408 805.2928,178.1408 L804.3528,178.1408 L804.3528,63.8078 C804.3528,57.7328 799.4278,52.8078 793.3528,52.8078 C787.2778,52.8078 782.3528,57.7328 782.3528,63.8078 L782.3528,136.4738 L773.7998,136.4738 C773.0648,136.4738 772.4668,135.8758 772.4668,135.1408 L772.4668,98.1408 C772.4668,92.0658 767.5418,87.1408 761.4668,87.1408 C755.3918,87.1408 750.4668,92.0658 750.4668,98.1408 L750.4668,135.1408 C750.4668,148.0068 760.9338,158.4738 773.7998,158.4738 Z" id="Stroke-171" stroke="#E1E4E5" stroke-width="4" stroke-linecap="round" stroke-linejoin="round"></path>
            <g id="Group-176" transform="translate(757.000000, 105.141000)">
                <path d="M0.2998,-0.0002 L0.2998,5.4998" id="Fill-173" fill="#FFFFFF"></path>
                <path d="M0.2998,-0.0002 L0.2998,5.4998" id="Stroke-175" stroke="#E1E4E5" stroke-width="4" stroke-linecap="round" stroke-linejoin="round"></path>
            </g>
            <g id="Group-180" transform="translate(764.000000, 121.141000)">
                <path d="M0.2998,-0.0002 L0.2998,5.9998" id="Fill-177" fill="#FFFFFF"></path>
                <path d="M0.2998,-0.0002 L0.2998,5.9998" id="Stroke-179" stroke="#E1E4E5" stroke-width="4" stroke-linecap="round" stroke-linejoin="round"></path>
            </g>
            <g id="Group-184" transform="translate(764.000000, 98.141000)">
                <path d="M0.2998,0.4998 L0.2998,3.9998" id="Fill-181" fill="#FFFFFF"></path>
                <path d="M0.2998,0.4998 L0.2998,3.9998" id="Stroke-183" stroke="#E1E4E5" stroke-width="4" stroke-linecap="round" stroke-linejoin="round"></path>
            </g>
            <g id="Group-188" transform="translate(758.000000, 135.141000)">
                <path d="M0.7998,-0.0002 L0.7998,7.4998" id="Fill-185" fill="#FFFFFF"></path>
                <path d="M0.7998,-0.0002 L0.7998,7.4998" id="Stroke-187" stroke="#E1E4E5" stroke-width="4" stroke-linecap="round" stroke-linejoin="round"></path>
            </g>
            <g id="Group-192" transform="translate(789.000000, 76.141000)">
                <path d="M0.2998,-0.0002 L0.2998,7.0178" id="Fill-189" fill="#FFFFFF"></path>
                <path d="M0.2998,-0.0002 L0.2998,7.0178" id="Stroke-191" stroke="#E1E4E5" stroke-width="4" stroke-linecap="round" stroke-linejoin="round"></path>
            </g>
            <g id="Group-196" transform="translate(797.000000, 63.141000)">
                <path d="M0.7998,0.4998 L0.7998,3.4998" id="Fill-193" fill="#FFFFFF"></path>
                <path d="M0.7998,0.4998 L0.7998,3.4998" id="Stroke-195" stroke="#E1E4E5" stroke-width="4" stroke-linecap="round" stroke-linejoin="round"></path>
            </g>
            <g id="Group-200" transform="translate(797.000000, 98.141000)">
                <path d="M0.2998,-0.0002 L0.2998,14.5088" id="Fill-197" fill="#FFFFFF"></path>
                <path d="M0.2998,-0.0002 L0.2998,14.5088" id="Stroke-199" stroke="#E1E4E5" stroke-width="4" stroke-linecap="round" stroke-linejoin="round"></path>
            </g>
            <g id="Group-204" transform="translate(797.000000, 136.141000)">
                <path d="M0.2998,0.4998 L0.2998,10.5088" id="Fill-201" fill="#FFFFFF"></path>
                <path d="M0.2998,0.4998 L0.2998,10.5088" id="Stroke-203" stroke="#E1E4E5" stroke-width="4" stroke-linecap="round" stroke-linejoin="round"></path>
            </g>
            <g id="Group-208" transform="translate(789.000000, 117.141000)">
                <path d="M0.2998,0.4998 L0.2998,3.4998" id="Fill-205" fill="#FFFFFF"></path>
                <path d="M0.2998,0.4998 L0.2998,3.4998" id="Stroke-207" stroke="#E1E4E5" stroke-width="4" stroke-linecap="round" stroke-linejoin="round"></path>
            </g>
            <g id="Group-212" transform="translate(819.000000, 116.141000)">
                <path d="M0.2998,-0.0002 L0.2998,6.4998" id="Fill-209" fill="#FFFFFF"></path>
                <path d="M0.2998,-0.0002 L0.2998,6.4998" id="Stroke-211" stroke="#E1E4E5" stroke-width="4" stroke-linecap="round" stroke-linejoin="round"></path>
            </g>
            <g id="Group-216" transform="translate(825.000000, 135.141000)">
                <path d="M0.2998,-0.0002 L0.2998,5.9998" id="Fill-213" fill="#FFFFFF"></path>
                <path d="M0.2998,-0.0002 L0.2998,5.9998" id="Stroke-215" stroke="#E1E4E5" stroke-width="4" stroke-linecap="round" stroke-linejoin="round"></path>
            </g>
            <g id="Group-220" transform="translate(825.000000, 165.141000)">
                <path d="M0.2998,0.2498 L0.2998,4.7498" id="Fill-217" fill="#FFFFFF"></path>
                <path d="M0.2998,0.2498 L0.2998,4.7498" id="Stroke-219" stroke="#E1E4E5" stroke-width="4" stroke-linecap="round" stroke-linejoin="round"></path>
            </g>
            <g id="Group-224" transform="translate(819.000000, 148.141000)">
                <path d="M0.2998,-0.0002 L0.2998,2.4998" id="Fill-221" fill="#FFFFFF"></path>
                <path d="M0.2998,-0.0002 L0.2998,2.4998" id="Stroke-223" stroke="#E1E4E5" stroke-width="4" stroke-linecap="round" stroke-linejoin="round"></path>
            </g>
            <g id="Group-228" transform="translate(825.000000, 105.141000)">
                <polyline id="Fill-225" fill="#FFFFFF" points="0.2998 0.9998 0.2998 0.4998 0.2998 2.9998"></polyline>
                <polyline id="Stroke-227" stroke="#E1E4E5" stroke-width="4" stroke-linecap="round" stroke-linejoin="round" points="0.2998 0.9998 0.2998 0.4998 0.2998 2.9998"></polyline>
            </g>
        </g>
    </g>
</svg>