<?xml version="1.0" encoding="UTF-8"?>
<svg width="909px" height="331px" viewBox="0 0 909 331" version="1.1" xmlns="http://www.w3.org/2000/svg" xmlns:xlink="http://www.w3.org/1999/xlink">
    <!-- Generator: Sketch 48.2 (47327) - http://www.bohemiancoding.com/sketch -->
    <title>Style 10</title>
    <desc>Created with Sketch.</desc>
    <defs></defs>
    <g id="Page-1" stroke="none" stroke-width="1" fill="none" fill-rule="evenodd">
        <g id="Style-10" transform="translate(2.000000, 1.000000)">
            <path d="M763.4858,92.2905 L653.7088,92.7115 C644.8208,92.7455 640.9448,81.2525 648.1998,76.1175 C648.3008,76.0455 648.4038,75.9745 648.5068,75.9025 C658.8368,68.7425 672.4308,69.3385 672.4308,69.3385 C672.4308,69.3385 674.2248,30.8185 710.7958,30.6785 C728.8768,30.6085 743.6068,61.4595 743.6068,61.4595 C743.6068,61.4595 768.2028,61.3645 772.3458,80.7695 C773.6018,86.6465 769.4958,92.2675 763.4858,92.2905" id="Fill-1" fill="#FFFFFF"></path>
            <path d="M763.4858,92.2905 L653.7088,92.7115 C644.8208,92.7455 640.9448,81.2525 648.1998,76.1175 C648.3008,76.0455 648.4038,75.9745 648.5068,75.9025 C658.8368,68.7425 672.4308,69.3385 672.4308,69.3385 C672.4308,69.3385 674.2248,30.8185 710.7958,30.6785 C728.8768,30.6085 743.6068,61.4595 743.6068,61.4595 C743.6068,61.4595 768.2028,61.3645 772.3458,80.7695 C773.6018,86.6465 769.4958,92.2675 763.4858,92.2905 Z" id="Stroke-3" stroke="#E1E4E5" stroke-width="4" stroke-linecap="round" stroke-linejoin="round"></path>
            <path d="M12.2124,153.2397 L159.7364,153.8047 C171.6804,153.8507 176.8894,138.4067 167.1404,131.5067 C167.0034,131.4097 166.8654,131.3127 166.7264,131.2167 C152.8464,121.5947 134.5764,122.3947 134.5764,122.3947 C134.5764,122.3947 132.1664,70.4407 83.0204,70.4407 C48.2674,70.4407 38.9264,111.8067 38.9264,111.8067 C38.9264,111.8067 5.8734,111.6797 0.3044,137.7567 C-1.3826,145.6557 4.1344,153.2087 12.2124,153.2397" id="Fill-5" fill="#FFFFFF"></path>
            <path d="M12.2124,153.2397 L159.7364,153.8047 C171.6804,153.8507 176.8894,138.4067 167.1404,131.5067 C167.0034,131.4097 166.8654,131.3127 166.7264,131.2167 C152.8464,121.5947 134.5764,122.3947 134.5764,122.3947 C134.5764,122.3947 132.1664,70.4407 83.0204,70.4407 C48.2674,70.4407 38.9264,111.8067 38.9264,111.8067 C38.9264,111.8067 5.8734,111.6797 0.3044,137.7567 C-1.3826,145.6557 4.1344,153.2087 12.2124,153.2397 Z" id="Stroke-7" stroke="#E1E4E5" stroke-width="4" stroke-linecap="round" stroke-linejoin="round"></path>
            <path d="M448.1328,37.2114 L506.2228,36.9874 C511.4168,36.9684 513.6298,30.2354 509.3678,27.2684 C509.3068,27.2274 509.2478,27.1854 509.1868,27.1444 C503.1198,23.0074 495.1788,23.4154 495.1788,23.4154 C495.1788,23.4154 493.9588,0.9174 472.5908,0.9994 C453.2728,1.0734 445.6418,20.0634 442.9038,30.5194 C442.0138,33.9164 444.6208,37.2254 448.1328,37.2114" id="Fill-9" fill="#FFFFFF"></path>
            <path d="M448.1328,37.2114 L506.2228,36.9874 C511.4168,36.9684 513.6298,30.2354 509.3678,27.2684 C509.3068,27.2274 509.2478,27.1854 509.1868,27.1444 C503.1198,23.0074 495.1788,23.4154 495.1788,23.4154 C495.1788,23.4154 493.9588,0.9174 472.5908,0.9994 C453.2728,1.0734 445.6418,20.0634 442.9038,30.5194 C442.0138,33.9164 444.6208,37.2254 448.1328,37.2114 Z" id="Stroke-11" stroke="#E1E4E5" stroke-width="4" stroke-linecap="round" stroke-linejoin="round"></path>
            <path d="M231.4526,229.8461 L430.3946,230.5751 C449.0696,230.6441 448.2686,215.2641 442.1886,209.8841 C435.9576,204.3701 423.5956,206.5531 423.5956,206.5531 C423.5956,206.5531 419.9556,196.1971 407.8686,191.1171 C397.1766,186.6241 385.9506,188.7021 385.9506,188.7021 C385.9506,188.7021 385.9766,181.6051 379.1416,175.7011 C372.3066,169.7971 363.1636,170.3351 363.1636,170.3351 C363.1636,170.3351 357.0216,131.1741 315.0266,131.0211 C273.0326,130.8671 268.0406,167.7011 268.0406,167.7011 C268.0406,167.7011 258.6136,167.6671 251.7336,173.9271 C244.8546,180.1871 243.9716,187.3261 243.9716,187.3261 C243.9716,187.3261 221.0526,184.1521 214.1996,203.9071 C210.1156,215.6811 218.3666,229.7981 231.4526,229.8461" id="Fill-13" fill="#FFFFFF"></path>
            <path d="M231.4526,229.8461 L430.3946,230.5751 C449.0696,230.6441 448.2686,215.2641 442.1886,209.8841 C435.9576,204.3701 423.5956,206.5531 423.5956,206.5531 C423.5956,206.5531 419.9556,196.1971 407.8686,191.1171 C397.1766,186.6241 385.9506,188.7021 385.9506,188.7021 C385.9506,188.7021 385.9766,181.6051 379.1416,175.7011 C372.3066,169.7971 363.1636,170.3351 363.1636,170.3351 C363.1636,170.3351 357.0216,131.1741 315.0266,131.0211 C273.0326,130.8671 268.0406,167.7011 268.0406,167.7011 C268.0406,167.7011 258.6136,167.6671 251.7336,173.9271 C244.8546,180.1871 243.9716,187.3261 243.9716,187.3261 C243.9716,187.3261 221.0526,184.1521 214.1996,203.9071 C210.1156,215.6811 218.3666,229.7981 231.4526,229.8461 Z" id="Stroke-15" stroke="#E1E4E5" stroke-width="4" stroke-linecap="round" stroke-linejoin="round"></path>
            <path d="M837.9175,200.3745 L899.5915,200.6115 C904.5855,200.6305 906.7625,194.1735 902.6875,191.2895 C902.6295,191.2485 902.5715,191.2085 902.5145,191.1685 C896.7105,187.1455 889.0725,187.4795 889.0725,187.4795 C889.0725,187.4795 888.0645,165.8395 867.5195,165.7605 C857.3605,165.7215 849.0855,183.0535 849.0855,183.0535 C849.0855,183.0535 835.2675,183.0005 832.9385,193.9015 C832.2335,197.2045 834.5405,200.3615 837.9175,200.3745" id="Fill-17" fill="#FFFFFF"></path>
            <path d="M837.9175,200.3745 L899.5915,200.6115 C904.5855,200.6305 906.7625,194.1735 902.6875,191.2895 C902.6295,191.2485 902.5715,191.2085 902.5145,191.1685 C896.7105,187.1455 889.0725,187.4795 889.0725,187.4795 C889.0725,187.4795 888.0645,165.8395 867.5195,165.7605 C857.3605,165.7215 849.0855,183.0535 849.0855,183.0535 C849.0855,183.0535 835.2675,183.0005 832.9385,193.9015 C832.2335,197.2045 834.5405,200.3615 837.9175,200.3745 Z" id="Stroke-19" stroke="#E1E4E5" stroke-width="4" stroke-linecap="round" stroke-linejoin="round"></path>
            <path d="M420.6274,327.3813 L402.0194,327.3813 C394.7474,327.3813 388.8524,321.4123 388.8524,314.0503 L388.8524,294.5143 L385.6704,283.8913 C405.3864,283.9773 433.0524,284.3233 436.9754,283.8913 L433.7944,294.5143 L433.7944,314.0503 C433.7944,321.4123 427.8984,327.3813 420.6274,327.3813" id="Fill-21" fill="#FFFFFF"></path>
            <path d="M420.6274,327.3813 L402.0194,327.3813 C394.7474,327.3813 388.8524,321.4123 388.8524,314.0503 L388.8524,294.5143 L385.6704,283.8913 C405.3864,283.9773 433.0524,284.3233 436.9754,283.8913 L433.7944,294.5143 L433.7944,314.0503 C433.7944,321.4123 427.8984,327.3813 420.6274,327.3813 Z" id="Stroke-23" stroke="#E1E4E5" stroke-width="4" stroke-linecap="round" stroke-linejoin="round"></path>
            <g id="Group-28" transform="translate(411.000000, 255.381000)">
                <path d="M0.3232,0.7454 L0.3232,27.6134" id="Fill-25" fill="#FFFFFF"></path>
                <path d="M0.3232,0.7454 L0.3232,27.6134" id="Stroke-27" stroke="#E1E4E5" stroke-width="4" stroke-linecap="round" stroke-linejoin="round"></path>
            </g>
            <g id="Group-32" transform="translate(383.000000, 256.381000)">
                <path d="M0.6684,0.7737 L6.6694,28.7577" id="Fill-29" fill="#FFFFFF"></path>
                <path d="M0.6684,0.7737 L6.6694,28.7577" id="Stroke-31" stroke="#E1E4E5" stroke-width="4" stroke-linecap="round" stroke-linejoin="round"></path>
            </g>
            <g id="Group-36" transform="translate(433.000000, 256.381000)">
                <path d="M7.5791,0.7737 L0.7831,28.7577" id="Fill-33" fill="#FFFFFF"></path>
                <path d="M7.5791,0.7737 L0.7831,28.7577" id="Stroke-35" stroke="#E1E4E5" stroke-width="4" stroke-linecap="round" stroke-linejoin="round"></path>
            </g>
            <g id="Group-40" transform="translate(421.000000, 256.381000)">
                <path d="M5.582,0.5989 L0.676,28.2259" id="Fill-37" fill="#FFFFFF"></path>
                <path d="M5.582,0.5989 L0.676,28.2259" id="Stroke-39" stroke="#E1E4E5" stroke-width="4" stroke-linecap="round" stroke-linejoin="round"></path>
            </g>
            <g id="Group-44" transform="translate(396.000000, 256.381000)">
                <path d="M0.4868,0.5989 L5.3918,28.2259" id="Fill-41" fill="#FFFFFF"></path>
                <path d="M0.4868,0.5989 L5.3918,28.2259" id="Stroke-43" stroke="#E1E4E5" stroke-width="4" stroke-linecap="round" stroke-linejoin="round"></path>
            </g>
            <g id="Group-48" transform="translate(388.000000, 294.381000)">
                <path d="M0.6728,0.4046 L45.7488,0.4046" id="Fill-45" fill="#FFFFFF"></path>
                <path d="M0.6728,0.4046 L45.7488,0.4046" id="Stroke-47" stroke="#E1E4E5" stroke-width="4" stroke-linecap="round" stroke-linejoin="round"></path>
            </g>
            <path d="M523.2388,116.7924 C523.2388,54.8144 473.6168,4.5724 412.4038,4.5724 C351.1918,4.5724 301.5698,54.8144 301.5698,116.7924 C301.5698,167.2754 379.7898,257.1994 379.7898,257.1994 L445.0178,257.1994 C445.0178,257.1994 523.2388,167.2754 523.2388,116.7924" id="Fill-49" fill="#FFFFFF"></path>
            <path d="M523.2388,116.7924 C523.2388,54.8144 473.6168,4.5724 412.4038,4.5724 C351.1918,4.5724 301.5698,54.8144 301.5698,116.7924 C301.5698,167.2754 379.7898,257.1994 379.7898,257.1994 L445.0178,257.1994 C445.0178,257.1994 523.2388,167.2754 523.2388,116.7924 Z" id="Stroke-51" stroke="#E1E4E5" stroke-width="4" stroke-linecap="round" stroke-linejoin="round"></path>
            <path d="M483.0678,116.7924 C483.0678,54.8144 451.4308,4.5724 412.4038,4.5724 C373.3778,4.5724 341.7398,54.8144 341.7398,116.7924 C341.7398,167.2754 391.6108,257.1994 391.6108,257.1994 L433.1978,257.1994 C433.1978,257.1994 483.0678,167.2754 483.0678,116.7924" id="Fill-53" fill="#FFFFFF"></path>
            <path d="M483.0678,116.7924 C483.0678,54.8144 451.4308,4.5724 412.4038,4.5724 C373.3778,4.5724 341.7398,54.8144 341.7398,116.7924 C341.7398,167.2754 391.6108,257.1994 391.6108,257.1994 L433.1978,257.1994 C433.1978,257.1994 483.0678,167.2754 483.0678,116.7924 Z" id="Stroke-55" stroke="#E1E4E5" stroke-width="4" stroke-linecap="round" stroke-linejoin="round"></path>
            <path d="M436.769,116.7924 C436.769,54.8144 425.861,4.5724 412.404,4.5724 C398.948,4.5724 388.039,54.8144 388.039,116.7924 C388.039,167.2754 405.234,257.1994 405.234,257.1994 L419.574,257.1994 C419.574,257.1994 436.769,167.2754 436.769,116.7924" id="Fill-57" fill="#FFFFFF"></path>
            <path d="M436.769,116.7924 C436.769,54.8144 425.861,4.5724 412.404,4.5724 C398.948,4.5724 388.039,54.8144 388.039,116.7924 C388.039,167.2754 405.234,257.1994 405.234,257.1994 L419.574,257.1994 C419.574,257.1994 436.769,167.2754 436.769,116.7924 Z" id="Stroke-59" stroke="#E1E4E5" stroke-width="4" stroke-linecap="round" stroke-linejoin="round"></path>
            <path d="M452.0132,200.0737 C420.8642,199.9547 435.6292,150.6207 475.0432,162.5697 C477.4902,93.9987 589.4662,44.2497 635.3322,136.9247 C648.4402,126.6347 677.7112,146.2777 671.1472,163.3227 C685.6592,164.6157 697.0752,166.3387 705.9502,168.5947 C726.4462,173.8087 722.2822,200.8807 701.1342,200.6097 L452.0132,200.0737 Z" id="Fill-61" fill="#FFFFFF"></path>
            <path d="M452.0132,200.0737 C420.8642,199.9547 435.6292,150.6207 475.0432,162.5697 C477.4902,93.9987 589.4662,44.2497 635.3322,136.9247 C648.4402,126.6347 677.7112,146.2777 671.1472,163.3227 C685.6592,164.6157 697.0752,166.3387 705.9502,168.5947 C726.4462,173.8087 722.2822,200.8807 701.1342,200.6097 L452.0132,200.0737 Z" id="Stroke-63" stroke="#E1E4E5" stroke-width="4" stroke-linecap="round" stroke-linejoin="round"></path>
            <g id="Group-68" transform="translate(567.000000, 213.381000)">
                <path d="M0.2417,0.0061 L78.3677,0.0061" id="Fill-65" fill="#FFFFFF"></path>
                <path d="M0.2417,0.0061 L78.3677,0.0061" id="Stroke-67" stroke="#E1E4E5" stroke-width="4" stroke-linecap="round" stroke-linejoin="round"></path>
            </g>
            <g id="Group-72" transform="translate(527.000000, 210.381000)">
                <path d="M16.2427,3.0061 L0.9467,3.0061 C1.0457,2.0061 1.1437,1.0061 1.2437,0.0061" id="Fill-69" fill="#FFFFFF"></path>
                <path d="M16.2427,3.0061 L0.9467,3.0061 C1.0457,2.0061 1.1437,1.0061 1.2437,0.0061" id="Stroke-71" stroke="#E1E4E5" stroke-width="4" stroke-linecap="round" stroke-linejoin="round"></path>
            </g>
            <g id="Group-76" transform="translate(289.000000, 244.381000)">
                <path d="M0.7553,0.5042 L23.2543,0.5042" id="Fill-73" fill="#FFFFFF"></path>
                <path d="M0.7553,0.5042 L23.2543,0.5042" id="Stroke-75" stroke="#E1E4E5" stroke-width="4" stroke-linecap="round" stroke-linejoin="round"></path>
            </g>
            <g id="Group-80" transform="translate(105.000000, 169.381000)">
                <path d="M0.2646,0.5081 L18.2636,0.5081" id="Fill-77" fill="#FFFFFF"></path>
                <path d="M0.2646,0.5081 L18.2636,0.5081" id="Stroke-79" stroke="#E1E4E5" stroke-width="4" stroke-linecap="round" stroke-linejoin="round"></path>
            </g>
            <g id="Group-84" transform="translate(226.000000, 148.381000)">
                <path d="M0.7583,0.5091 L23.4563,0.5091" id="Fill-81" fill="#FFFFFF"></path>
                <path d="M0.7583,0.5091 L23.4563,0.5091" id="Stroke-83" stroke="#E1E4E5" stroke-width="4" stroke-linecap="round" stroke-linejoin="round"></path>
            </g>
            <g id="Group-88" transform="translate(178.000000, 208.381000)">
                <path d="M0.7607,0.5061 L21.7597,0.5061" id="Fill-85" fill="#FFFFFF"></path>
                <path d="M0.7607,0.5061 L21.7597,0.5061" id="Stroke-87" stroke="#E1E4E5" stroke-width="4" stroke-linecap="round" stroke-linejoin="round"></path>
            </g>
            <g id="Group-92" transform="translate(148.000000, 208.381000)">
                <path d="M11.2617,0.5061 L0.6557,0.5061" id="Fill-89" fill="#FFFFFF"></path>
                <path d="M11.2617,0.5061 L0.6557,0.5061" id="Stroke-91" stroke="#E1E4E5" stroke-width="4" stroke-linecap="round" stroke-linejoin="round"></path>
            </g>
            <g id="Group-96" transform="translate(722.000000, 106.381000)">
                <path d="M0.9526,0.1917 L34.0876,0.1917" id="Fill-93" fill="#FFFFFF"></path>
                <path d="M0.9526,0.1917 L34.0876,0.1917" id="Stroke-95" stroke="#E1E4E5" stroke-width="4" stroke-linecap="round" stroke-linejoin="round"></path>
            </g>
            <g id="Group-100" transform="translate(535.000000, 61.381000)">
                <path d="M0.7427,0.513 L17.3097,0.513" id="Fill-97" fill="#FFFFFF"></path>
                <path d="M0.7427,0.513 L17.3097,0.513" id="Stroke-99" stroke="#E1E4E5" stroke-width="4" stroke-linecap="round" stroke-linejoin="round"></path>
            </g>
            <g id="Group-104" transform="translate(610.000000, 228.381000)">
                <path d="M0.7397,0.0052 L14.3217,0.0052" id="Fill-101" fill="#FFFFFF"></path>
                <path d="M0.7397,0.0052 L14.3217,0.0052" id="Stroke-103" stroke="#E1E4E5" stroke-width="4" stroke-linecap="round" stroke-linejoin="round"></path>
            </g>
        </g>
    </g>
</svg>