<?xml version="1.0" encoding="UTF-8"?>
<svg width="1086px" height="347px" viewBox="0 0 1086 347" version="1.1" xmlns="http://www.w3.org/2000/svg" xmlns:xlink="http://www.w3.org/1999/xlink">
    <!-- Generator: Sketch 48.2 (47327) - http://www.bohemiancoding.com/sketch -->
    <title>Style 2</title>
    <desc>Created with Sketch.</desc>
    <defs>
        <polygon id="path-1" points="0 346.7 1085.905 346.7 1085.905 -5.68434189e-14 0 -5.68434189e-14"></polygon>
    </defs>
    <g id="Background-Images" stroke="none" stroke-width="1" fill="none" fill-rule="evenodd" transform="translate(-408.000000, -921.000000)">
        <g id="Style-2" transform="translate(408.000000, 921.000000)">
            <path d="M418.0208,99.8396 C431.9478,99.8396 425.4308,77.7576 407.7888,83.0326 C406.8128,52.3706 356.8338,29.9366 336.1688,71.2916 C330.3258,66.6686 317.2058,75.4006 320.1108,83.0326 C313.6208,83.5856 308.5138,84.3366 304.5418,85.3306 C295.3698,87.6266 297.1848,99.7366 306.6398,99.6516 L418.0208,99.8396 Z" id="Fill-1" fill="#FFFFFF"></path>
            <path d="M418.0208,99.8396 C431.9478,99.8396 425.4308,77.7576 407.7888,83.0326 C406.8128,52.3706 356.8338,29.9366 336.1688,71.2916 C330.3258,66.6686 317.2058,75.4006 320.1108,83.0326 C313.6208,83.5856 308.5138,84.3366 304.5418,85.3306 C295.3698,87.6266 297.1848,99.7366 306.6398,99.6516 L418.0208,99.8396 Z" id="Stroke-3" stroke="#E1E4E5" stroke-width="4" stroke-linecap="round" stroke-linejoin="round"></path>
            <path d="M767.4114,119.9251 L705.7364,119.9251 C700.7434,119.9251 698.5904,113.4601 702.6774,110.5911 C702.7344,110.5501 702.7924,110.5101 702.8504,110.4701 C708.6694,106.4701 716.3054,106.8341 716.3054,106.8341 C716.3054,106.8341 717.3964,85.1971 737.9424,85.1971 C748.1004,85.1971 756.3094,102.5611 756.3094,102.5611 C756.3094,102.5611 770.1284,102.5611 772.4144,113.4711 C773.1074,116.7761 770.7884,119.9251 767.4114,119.9251" id="Fill-5" fill="#FFFFFF"></path>
            <path d="M767.4114,119.9251 L705.7364,119.9251 C700.7434,119.9251 698.5904,113.4601 702.6774,110.5911 C702.7344,110.5501 702.7924,110.5101 702.8504,110.4701 C708.6694,106.4701 716.3054,106.8341 716.3054,106.8341 C716.3054,106.8341 717.3964,85.1971 737.9424,85.1971 C748.1004,85.1971 756.3094,102.5611 756.3094,102.5611 C756.3094,102.5611 770.1284,102.5611 772.4144,113.4711 C773.1074,116.7761 770.7884,119.9251 767.4114,119.9251 Z" id="Stroke-7" stroke="#E1E4E5" stroke-width="4" stroke-linecap="round" stroke-linejoin="round"></path>
            <path d="M704.9627,97.1677 L847.8757,344.6997 L532.9337,344.6997 L675.8467,97.1677 C682.3167,85.9607 698.4927,85.9607 704.9627,97.1677" id="Fill-9" fill="#FFFFFF"></path>
            <path d="M704.9627,97.1677 L847.8757,344.6997 L532.9337,344.6997 L675.8467,97.1677 C682.3167,85.9607 698.4927,85.9607 704.9627,97.1677 Z" id="Stroke-11" stroke="#E1E4E5" stroke-width="4" stroke-linecap="round" stroke-linejoin="round"></path>
            <path d="M778.2327,224.0745 L704.9627,97.1675 C698.4927,85.9605 682.3167,85.9605 675.8467,97.1675 L601.1897,226.4765 C599.3937,229.5885 599.0077,233.3175 600.1307,236.7305 L600.7697,238.6715 C603.8707,248.1015 616.1427,250.4245 622.4757,242.7815 L656.9517,201.1715 C661.7357,195.3985 670.4677,195.0435 675.7037,200.4105 L694.1727,219.3425 C700.0427,225.3585 710.0427,224.0635 714.1867,216.7515 L714.3567,216.4505 C718.5787,208.9995 728.8387,207.8285 734.6317,214.1365 L757.7287,239.2855 C763.0367,245.0665 772.2777,244.6515 777.0467,238.4185 L777.3257,238.0535 C780.4237,234.0055 780.7817,228.4895 778.2327,224.0745" id="Fill-13" fill="#FFFFFF"></path>
            <path d="M778.2327,224.0745 L704.9627,97.1675 C698.4927,85.9605 682.3167,85.9605 675.8467,97.1675 L601.1897,226.4765 C599.3937,229.5885 599.0077,233.3175 600.1307,236.7305 L600.7697,238.6715 C603.8707,248.1015 616.1427,250.4245 622.4757,242.7815 L656.9517,201.1715 C661.7357,195.3985 670.4677,195.0435 675.7037,200.4105 L694.1727,219.3425 C700.0427,225.3585 710.0427,224.0635 714.1867,216.7515 L714.3567,216.4505 C718.5787,208.9995 728.8387,207.8285 734.6317,214.1365 L757.7287,239.2855 C763.0367,245.0665 772.2777,244.6515 777.0467,238.4185 L777.3257,238.0535 C780.4237,234.0055 780.7817,228.4895 778.2327,224.0745 Z" id="Stroke-15" stroke="#E1E4E5" stroke-width="4" stroke-linecap="round" stroke-linejoin="round"></path>
            <g id="Group-20" transform="translate(2.000000, 344.700000)">
                <path d="M-0.0002,0 L1081.9048,0" id="Fill-17" fill="#FFFFFF"></path>
                <path d="M-0.0002,0 L1081.9048,0" id="Stroke-19" stroke="#E1E4E5" stroke-width="4" stroke-linecap="round" stroke-linejoin="round"></path>
            </g>
            <path d="M381.324,99.5257 L522.876,344.6997 L210.933,344.6997 L352.485,99.5257 C358.894,88.4247 374.915,88.4247 381.324,99.5257" id="Fill-21" fill="#FFFFFF"></path>
            <path d="M381.324,99.5257 L522.876,344.6997 L210.933,344.6997 L352.485,99.5257 C358.894,88.4247 374.915,88.4247 381.324,99.5257 Z" id="Stroke-23" stroke="#E1E4E5" stroke-width="4" stroke-linecap="round" stroke-linejoin="round"></path>
            <path d="M428.9163,181.9578 L381.3243,99.5258 C374.9153,88.4258 358.8943,88.4258 352.4853,99.5258 L303.9093,183.6608 C303.1603,184.9578 302.8123,186.4478 302.9103,187.9418 L303.6133,198.7728 C304.0653,205.7268 312.8703,208.4378 317.1553,202.9438 L336.9533,177.5618 C340.2693,173.3118 346.8373,173.7828 349.5123,178.4638 L349.6323,178.6738 C352.4723,183.6438 359.5853,183.7928 362.6323,178.9468 L371.9433,164.1328 C374.7983,159.5918 381.3373,159.3708 384.4923,163.7088 L410.8703,199.9778 C414.1403,204.4748 420.9793,204.0368 423.6493,199.1598 L429.0003,189.3898 C430.2713,187.0678 430.2403,184.2498 428.9163,181.9578" id="Fill-25" fill="#FFFFFF"></path>
            <path d="M428.9163,181.9578 L381.3243,99.5258 C374.9153,88.4258 358.8943,88.4258 352.4853,99.5258 L303.9093,183.6608 C303.1603,184.9578 302.8123,186.4478 302.9103,187.9418 L303.6133,198.7728 C304.0653,205.7268 312.8703,208.4378 317.1553,202.9438 L336.9533,177.5618 C340.2693,173.3118 346.8373,173.7828 349.5123,178.4638 L349.6323,178.6738 C352.4723,183.6438 359.5853,183.7928 362.6323,178.9468 L371.9433,164.1328 C374.7983,159.5918 381.3373,159.3708 384.4923,163.7088 L410.8703,199.9778 C414.1403,204.4748 420.9793,204.0368 423.6493,199.1598 L429.0003,189.3898 C430.2713,187.0678 430.2403,184.2498 428.9163,181.9578 Z" id="Stroke-27" stroke="#E1E4E5" stroke-width="4" stroke-linecap="round" stroke-linejoin="round"></path>
            <path d="M583.824,10.325 L776.876,344.7 L361.933,344.7 L554.985,10.325 C561.394,-0.775 577.415,-0.775 583.824,10.325" id="Fill-29" fill="#FFFFFF"></path>
            <path d="M583.824,10.325 L776.876,344.7 L361.933,344.7 L554.985,10.325 C561.394,-0.775 577.415,-0.775 583.824,10.325 Z" id="Stroke-31" stroke="#E1E4E5" stroke-width="4" stroke-linecap="round" stroke-linejoin="round"></path>
            <path d="M652.8519,129.8845 L583.8239,10.3245 C577.4149,-0.7755 561.3939,-0.7755 554.9849,10.3245 L470.1899,157.1945 C467.4269,161.9795 466.6159,167.6455 467.9239,173.0145 L468.0149,173.3845 C470.9639,185.4845 486.1979,189.4305 494.6519,180.2845 L521.8429,150.8635 C529.1159,142.9955 541.7709,143.7515 548.0549,152.4295 L548.2659,152.7195 C552.7979,158.9795 561.8549,159.6995 567.3199,154.2345 L567.5299,154.0245 C572.9299,148.6245 581.9039,149.4375 586.2449,155.7205 L600.5719,176.4575 C606.4279,184.9345 619.5699,182.3865 621.8349,172.3355 L628.9709,140.6705 C630.2829,134.8455 637.3819,132.5905 641.8149,136.5895 L643.1149,137.7615 C648.4779,142.5995 656.4629,136.1395 652.8519,129.8845" id="Fill-33" fill="#FFFFFF"></path>
            <path d="M652.8519,129.8845 L583.8239,10.3245 C577.4149,-0.7755 561.3939,-0.7755 554.9849,10.3245 L470.1899,157.1945 C467.4269,161.9795 466.6159,167.6455 467.9239,173.0145 L468.0149,173.3845 C470.9639,185.4845 486.1979,189.4305 494.6519,180.2845 L521.8429,150.8635 C529.1159,142.9955 541.7709,143.7515 548.0549,152.4295 L548.2659,152.7195 C552.7979,158.9795 561.8549,159.6995 567.3199,154.2345 L567.5299,154.0245 C572.9299,148.6245 581.9039,149.4375 586.2449,155.7205 L600.5719,176.4575 C606.4279,184.9345 619.5699,182.3865 621.8349,172.3355 L628.9709,140.6705 C630.2829,134.8455 637.3819,132.5905 641.8149,136.5895 L643.1149,137.7615 C648.4779,142.5995 656.4629,136.1395 652.8519,129.8845 Z" id="Stroke-35" stroke="#E1E4E5" stroke-width="4" stroke-linecap="round" stroke-linejoin="round"></path>
            <g id="Group-40" transform="translate(435.000000, 210.700000)">
                <path d="M70.9046,0 L0.9046,134" id="Fill-37" fill="#FFFFFF"></path>
                <path d="M70.9046,0 L0.9046,134" id="Stroke-39" stroke="#E1E4E5" stroke-width="4" stroke-linecap="round" stroke-linejoin="round"></path>
            </g>
            <g id="Group-44" transform="translate(514.000000, 163.700000)">
                <path d="M0.6317,31.8794 L16.1317,0.3804" id="Fill-41" fill="#FFFFFF"></path>
                <path d="M0.6317,31.8794 L16.1317,0.3804" id="Stroke-43" stroke="#E1E4E5" stroke-width="4" stroke-linecap="round" stroke-linejoin="round"></path>
            </g>
            <path d="M574.5091,50.2117 L632.6001,50.2117 C637.7931,50.2117 640.0321,43.4877 635.7811,40.5037 C635.7221,40.4617 635.6621,40.4197 635.6011,40.3787 C629.5511,36.2187 621.6081,36.5967 621.6081,36.5967 C621.6081,36.5967 620.4741,14.0947 599.1061,14.0947 C579.7881,14.0947 572.0841,33.0547 569.3061,43.4997 C568.4031,46.8937 570.9971,50.2117 574.5091,50.2117" id="Fill-45" fill="#FFFFFF"></path>
            <path d="M574.5091,50.2117 L632.6001,50.2117 C637.7931,50.2117 640.0321,43.4877 635.7811,40.5037 C635.7221,40.4617 635.6621,40.4197 635.6011,40.3787 C629.5511,36.2187 621.6081,36.5967 621.6081,36.5967 C621.6081,36.5967 620.4741,14.0947 599.1061,14.0947 C579.7881,14.0947 572.0841,33.0547 569.3061,43.4997 C568.4031,46.8937 570.9971,50.2117 574.5091,50.2117 Z" id="Stroke-47" stroke="#E1E4E5" stroke-width="4" stroke-linecap="round" stroke-linejoin="round"></path>
            <path d="M458.2034,122.0486 L570.1024,122.0486 C580.6064,122.0486 580.1244,113.4006 576.6934,110.3866 C573.1774,107.2986 566.2284,108.5506 566.2284,108.5506 C566.2284,108.5506 564.1594,102.7336 557.3504,99.9016 C551.3274,97.3966 545.0174,98.5886 545.0174,98.5886 C545.0174,98.5886 545.0174,94.5966 541.1614,91.2896 C537.3054,87.9836 532.1634,88.3046 532.1634,88.3046 C532.1634,88.3046 528.6284,66.2906 505.0074,66.2906 C481.3864,66.2906 478.6554,87.0196 478.6554,87.0196 C478.6554,87.0196 473.3524,87.0196 469.4954,90.5536 C465.6394,94.0896 465.1574,98.1066 465.1574,98.1066 C465.1574,98.1066 452.2604,96.3686 448.4464,107.4936 C446.1734,114.1246 450.8434,122.0486 458.2034,122.0486" id="Fill-49" fill="#FFFFFF"></path>
            <path d="M458.2034,122.0486 L570.1024,122.0486 C580.6064,122.0486 580.1244,113.4006 576.6934,110.3866 C573.1774,107.2986 566.2284,108.5506 566.2284,108.5506 C566.2284,108.5506 564.1594,102.7336 557.3504,99.9016 C551.3274,97.3966 545.0174,98.5886 545.0174,98.5886 C545.0174,98.5886 545.0174,94.5966 541.1614,91.2896 C537.3054,87.9836 532.1634,88.3046 532.1634,88.3046 C532.1634,88.3046 528.6284,66.2906 505.0074,66.2906 C481.3864,66.2906 478.6554,87.0196 478.6554,87.0196 C478.6554,87.0196 473.3524,87.0196 469.4954,90.5536 C465.6394,94.0896 465.1574,98.1066 465.1574,98.1066 C465.1574,98.1066 452.2604,96.3686 448.4464,107.4936 C446.1734,114.1246 450.8434,122.0486 458.2034,122.0486 Z" id="Stroke-51" stroke="#E1E4E5" stroke-width="4" stroke-linecap="round" stroke-linejoin="round"></path>
            <g id="Group-56" transform="translate(627.000000, 194.700000)">
                <path d="M0.6258,0.8794 L15.6258,38.3774" id="Fill-53" fill="#FFFFFF"></path>
                <path d="M0.6258,0.8794 L15.6258,38.3774" id="Stroke-55" stroke="#E1E4E5" stroke-width="4" stroke-linecap="round" stroke-linejoin="round"></path>
            </g>
            <mask id="mask-2" fill="white">
                <use xlink:href="#path-1"></use>
            </mask>
            <g id="Clip-58"></g>
            <polygon id="Fill-57" fill="#FFFFFF" mask="url(#mask-2)" points="255.572 275.856 259.217 275.856 259.217 234.546 255.572 234.546"></polygon>
            <polygon id="Stroke-59" stroke="#E1E4E5" stroke-width="4" stroke-linecap="round" stroke-linejoin="round" mask="url(#mask-2)" points="255.572 275.856 259.217 275.856 259.217 234.546 255.572 234.546"></polygon>
            <polygon id="Fill-60" fill="#FFFFFF" mask="url(#mask-2)" points="257.3943 227.5271 267.7223 245.4151 278.0493 263.3021 257.3943 255.1371 236.7393 263.3021 247.0673 245.4151"></polygon>
            <polygon id="Stroke-61" stroke="#E1E4E5" stroke-width="4" stroke-linecap="round" stroke-linejoin="round" mask="url(#mask-2)" points="257.3943 227.5271 267.7223 245.4151 278.0493 263.3021 257.3943 255.1371 236.7393 263.3021 247.0673 245.4151"></polygon>
            <polygon id="Fill-62" fill="#FFFFFF" mask="url(#mask-2)" points="257.3943 218.2698 266.1693 233.4678 274.9433 248.6658 257.3943 241.7278 239.8453 248.6658 248.6203 233.4678"></polygon>
            <polygon id="Stroke-63" stroke="#E1E4E5" stroke-width="4" stroke-linecap="round" stroke-linejoin="round" mask="url(#mask-2)" points="257.3943 218.2698 266.1693 233.4678 274.9433 248.6658 257.3943 241.7278 239.8453 248.6658 248.6203 233.4678"></polygon>
            <polygon id="Fill-64" fill="#FFFFFF" mask="url(#mask-2)" points="257.3943 208.1443 265.1173 221.5193 272.8393 234.8953 257.3943 228.7903 241.9503 234.8953 249.6723 221.5193"></polygon>
            <polygon id="Stroke-65" stroke="#E1E4E5" stroke-width="4" stroke-linecap="round" stroke-linejoin="round" mask="url(#mask-2)" points="257.3943 208.1443 265.1173 221.5193 272.8393 234.8953 257.3943 228.7903 241.9503 234.8953 249.6723 221.5193"></polygon>
            <polygon id="Fill-66" fill="#FFFFFF" mask="url(#mask-2)" points="611.054 309.355 614.699 309.355 614.699 268.045 611.054 268.045"></polygon>
            <polygon id="Stroke-67" stroke="#E1E4E5" stroke-width="4" stroke-linecap="round" stroke-linejoin="round" mask="url(#mask-2)" points="611.054 309.355 614.699 309.355 614.699 268.045 611.054 268.045"></polygon>
            <polygon id="Fill-68" fill="#FFFFFF" mask="url(#mask-2)" points="612.8768 261.0266 623.2038 278.9146 633.5318 296.8016 612.8768 288.6366 592.2218 296.8016 602.5488 278.9146"></polygon>
            <polygon id="Stroke-69" stroke="#E1E4E5" stroke-width="4" stroke-linecap="round" stroke-linejoin="round" mask="url(#mask-2)" points="612.8768 261.0266 623.2038 278.9146 633.5318 296.8016 612.8768 288.6366 592.2218 296.8016 602.5488 278.9146"></polygon>
            <polygon id="Fill-70" fill="#FFFFFF" mask="url(#mask-2)" points="612.8768 251.7688 621.6508 266.9668 630.4258 282.1648 612.8768 275.2278 595.3278 282.1648 604.1028 266.9668"></polygon>
            <polygon id="Stroke-71" stroke="#E1E4E5" stroke-width="4" stroke-linecap="round" stroke-linejoin="round" mask="url(#mask-2)" points="612.8768 251.7688 621.6508 266.9668 630.4258 282.1648 612.8768 275.2278 595.3278 282.1648 604.1028 266.9668"></polygon>
            <polygon id="Fill-72" fill="#FFFFFF" mask="url(#mask-2)" points="612.8768 241.6438 620.5988 255.0188 628.3218 268.3948 612.8768 262.2898 597.4318 268.3948 605.1548 255.0188"></polygon>
            <polygon id="Stroke-73" stroke="#E1E4E5" stroke-width="4" stroke-linecap="round" stroke-linejoin="round" mask="url(#mask-2)" points="612.8768 241.6438 620.5988 255.0188 628.3218 268.3948 612.8768 262.2898 597.4318 268.3948 605.1548 255.0188"></polygon>
            <polygon id="Fill-74" fill="#FFFFFF" mask="url(#mask-2)" points="357.297 264.065 361.084 264.065 361.084 221.152 357.297 221.152"></polygon>
            <polygon id="Stroke-75" stroke="#E1E4E5" stroke-width="4" stroke-linecap="round" stroke-linejoin="round" mask="url(#mask-2)" points="357.297 264.065 361.084 264.065 361.084 221.152 357.297 221.152"></polygon>
            <polygon id="Fill-76" fill="#FFFFFF" mask="url(#mask-2)" points="359.1912 213.8611 369.9192 232.4431 380.6482 251.0251 359.1912 242.5431 337.7342 251.0251 348.4622 232.4431"></polygon>
            <polygon id="Stroke-77" stroke="#E1E4E5" stroke-width="4" stroke-linecap="round" stroke-linejoin="round" mask="url(#mask-2)" points="359.1912 213.8611 369.9192 232.4431 380.6482 251.0251 359.1912 242.5431 337.7342 251.0251 348.4622 232.4431"></polygon>
            <polygon id="Fill-78" fill="#FFFFFF" mask="url(#mask-2)" points="359.1912 204.2439 368.3062 220.0319 377.4212 235.8199 359.1912 228.6129 340.9612 235.8199 350.0762 220.0319"></polygon>
            <polygon id="Stroke-79" stroke="#E1E4E5" stroke-width="4" stroke-linecap="round" stroke-linejoin="round" mask="url(#mask-2)" points="359.1912 204.2439 368.3062 220.0319 377.4212 235.8199 359.1912 228.6129 340.9612 235.8199 350.0762 220.0319"></polygon>
            <polygon id="Fill-80" fill="#FFFFFF" mask="url(#mask-2)" points="359.1912 193.7258 367.2132 207.6208 375.2352 221.5148 359.1912 215.1728 343.1472 221.5148 351.1692 207.6208"></polygon>
            <polygon id="Stroke-81" stroke="#E1E4E5" stroke-width="4" stroke-linecap="round" stroke-linejoin="round" mask="url(#mask-2)" points="359.1912 193.7258 367.2132 207.6208 375.2352 221.5148 359.1912 215.1728 343.1472 221.5148 351.1692 207.6208"></polygon>
            <polygon id="Fill-82" fill="#FFFFFF" mask="url(#mask-2)" points="669.964 295.064 676.011 295.064 676.011 226.529 669.964 226.529"></polygon>
            <polygon id="Stroke-83" stroke="#E1E4E5" stroke-width="4" stroke-linecap="round" stroke-linejoin="round" mask="url(#mask-2)" points="669.964 295.064 676.011 295.064 676.011 226.529 669.964 226.529"></polygon>
            <polygon id="Fill-84" fill="#FFFFFF" mask="url(#mask-2)" points="672.9866 214.8845 690.1206 244.5605 707.2546 274.2375 672.9866 260.6915 638.7186 274.2375 655.8526 244.5605"></polygon>
            <polygon id="Stroke-85" stroke="#E1E4E5" stroke-width="4" stroke-linecap="round" stroke-linejoin="round" mask="url(#mask-2)" points="672.9866 214.8845 690.1206 244.5605 707.2546 274.2375 672.9866 260.6915 638.7186 274.2375 655.8526 244.5605"></polygon>
            <polygon id="Fill-86" fill="#FFFFFF" mask="url(#mask-2)" points="672.9866 199.5252 687.5446 224.7392 702.1016 249.9542 672.9866 238.4442 643.8716 249.9542 658.4296 224.7392"></polygon>
            <polygon id="Stroke-87" stroke="#E1E4E5" stroke-width="4" stroke-linecap="round" stroke-linejoin="round" mask="url(#mask-2)" points="672.9866 199.5252 687.5446 224.7392 702.1016 249.9542 672.9866 238.4442 643.8716 249.9542 658.4296 224.7392"></polygon>
            <polygon id="Fill-88" fill="#FFFFFF" mask="url(#mask-2)" points="672.9866 182.7268 685.7986 204.9168 698.6106 227.1078 672.9866 216.9788 647.3626 227.1078 660.1746 204.9168"></polygon>
            <polygon id="Stroke-89" stroke="#E1E4E5" stroke-width="4" stroke-linecap="round" stroke-linejoin="round" mask="url(#mask-2)" points="672.9866 182.7268 685.7986 204.9168 698.6106 227.1078 672.9866 216.9788 647.3626 227.1078 660.1746 204.9168"></polygon>
            <polygon id="Fill-90" fill="#FFFFFF" mask="url(#mask-2)" points="167.576 308.356 171.221 308.356 171.221 267.046 167.576 267.046"></polygon>
            <polygon id="Stroke-91" stroke="#E1E4E5" stroke-width="4" stroke-linecap="round" stroke-linejoin="round" mask="url(#mask-2)" points="167.576 308.356 171.221 308.356 171.221 267.046 167.576 267.046"></polygon>
            <polygon id="Fill-92" fill="#FFFFFF" mask="url(#mask-2)" points="169.3987 260.0271 179.7267 277.9151 190.0537 295.8021 169.3987 287.6371 148.7437 295.8021 159.0717 277.9151"></polygon>
            <polygon id="Stroke-93" stroke="#E1E4E5" stroke-width="4" stroke-linecap="round" stroke-linejoin="round" mask="url(#mask-2)" points="169.3987 260.0271 179.7267 277.9151 190.0537 295.8021 169.3987 287.6371 148.7437 295.8021 159.0717 277.9151"></polygon>
            <polygon id="Fill-94" fill="#FFFFFF" mask="url(#mask-2)" points="169.3987 250.7693 178.1727 265.9673 186.9477 281.1653 169.3987 274.2283 151.8497 281.1653 160.6247 265.9673"></polygon>
            <polygon id="Stroke-95" stroke="#E1E4E5" stroke-width="4" stroke-linecap="round" stroke-linejoin="round" mask="url(#mask-2)" points="169.3987 250.7693 178.1727 265.9673 186.9477 281.1653 169.3987 274.2283 151.8497 281.1653 160.6247 265.9673"></polygon>
            <polygon id="Fill-96" fill="#FFFFFF" mask="url(#mask-2)" points="169.3987 240.6443 177.1217 254.0193 184.8437 267.3953 169.3987 261.2903 153.9537 267.3953 161.6767 254.0193"></polygon>
            <polygon id="Stroke-97" stroke="#E1E4E5" stroke-width="4" stroke-linecap="round" stroke-linejoin="round" mask="url(#mask-2)" points="169.3987 240.6443 177.1217 254.0193 184.8437 267.3953 169.3987 261.2903 153.9537 267.3953 161.6767 254.0193"></polygon>
            <polygon id="Fill-98" fill="#FFFFFF" mask="url(#mask-2)" points="796.219 294.293 800.913 294.293 800.913 241.087 796.219 241.087"></polygon>
            <polygon id="Stroke-99" stroke="#E1E4E5" stroke-width="4" stroke-linecap="round" stroke-linejoin="round" mask="url(#mask-2)" points="796.219 294.293 800.913 294.293 800.913 241.087 796.219 241.087"></polygon>
            <polygon id="Fill-100" fill="#FFFFFF" mask="url(#mask-2)" points="798.5657 232.0471 811.8667 255.0861 825.1687 278.1251 798.5657 267.6091 771.9627 278.1251 785.2647 255.0861"></polygon>
            <polygon id="Stroke-101" stroke="#E1E4E5" stroke-width="4" stroke-linecap="round" stroke-linejoin="round" mask="url(#mask-2)" points="798.5657 232.0471 811.8667 255.0861 825.1687 278.1251 798.5657 267.6091 771.9627 278.1251 785.2647 255.0861"></polygon>
            <polygon id="Fill-102" fill="#FFFFFF" mask="url(#mask-2)" points="798.5657 220.1238 809.8667 239.6978 821.1687 259.2728 798.5657 250.3378 775.9627 259.2728 787.2647 239.6978"></polygon>
            <polygon id="Stroke-103" stroke="#E1E4E5" stroke-width="4" stroke-linecap="round" stroke-linejoin="round" mask="url(#mask-2)" points="798.5657 220.1238 809.8667 239.6978 821.1687 259.2728 798.5657 250.3378 775.9627 259.2728 787.2647 239.6978"></polygon>
            <polygon id="Fill-104" fill="#FFFFFF" mask="url(#mask-2)" points="798.5657 207.0823 808.5117 224.3103 818.4577 241.5373 798.5657 233.6733 778.6727 241.5373 788.6197 224.3103"></polygon>
            <polygon id="Stroke-105" stroke="#E1E4E5" stroke-width="4" stroke-linecap="round" stroke-linejoin="round" mask="url(#mask-2)" points="798.5657 207.0823 808.5117 224.3103 818.4577 241.5373 798.5657 233.6733 778.6727 241.5373 788.6197 224.3103"></polygon>
            <polygon id="Fill-106" fill="#FFFFFF" mask="url(#mask-2)" points="227.728 287.064 232.564 287.064 232.564 232.255 227.728 232.255"></polygon>
            <polygon id="Stroke-107" stroke="#E1E4E5" stroke-width="4" stroke-linecap="round" stroke-linejoin="round" mask="url(#mask-2)" points="227.728 287.064 232.564 287.064 232.564 232.255 227.728 232.255"></polygon>
            <polygon id="Fill-108" fill="#FFFFFF" mask="url(#mask-2)" points="230.1458 222.9422 243.8478 246.6752 257.5498 270.4082 230.1458 259.5752 202.7418 270.4082 216.4438 246.6752"></polygon>
            <polygon id="Stroke-109" stroke="#E1E4E5" stroke-width="4" stroke-linecap="round" stroke-linejoin="round" mask="url(#mask-2)" points="230.1458 222.9422 243.8478 246.6752 257.5498 270.4082 230.1458 259.5752 202.7418 270.4082 216.4438 246.6752"></polygon>
            <polygon id="Fill-110" fill="#FFFFFF" mask="url(#mask-2)" points="230.1458 210.6594 241.7878 230.8234 253.4298 250.9884 230.1458 241.7844 206.8618 250.9884 218.5038 230.8234"></polygon>
            <polygon id="Stroke-111" stroke="#E1E4E5" stroke-width="4" stroke-linecap="round" stroke-linejoin="round" mask="url(#mask-2)" points="230.1458 210.6594 241.7878 230.8234 253.4298 250.9884 230.1458 241.7844 206.8618 250.9884 218.5038 230.8234"></polygon>
            <polygon id="Fill-112" fill="#FFFFFF" mask="url(#mask-2)" points="230.1458 197.2254 240.3918 214.9714 250.6378 232.7184 230.1458 224.6174 209.6538 232.7184 219.8998 214.9714"></polygon>
            <polygon id="Stroke-113" stroke="#E1E4E5" stroke-width="4" stroke-linecap="round" stroke-linejoin="round" mask="url(#mask-2)" points="230.1458 197.2254 240.3918 214.9714 250.6378 232.7184 230.1458 224.6174 209.6538 232.7184 219.8998 214.9714"></polygon>
            <path d="M81.9046,343.3665 C81.9046,343.3665 197.9086,265.4605 360.9046,264.3665 C524.6396,263.2675 654.9046,340.6995 666.9046,344.6995 L81.9046,343.3665 Z" id="Fill-114" fill="#FFFFFF" mask="url(#mask-2)"></path>
            <path d="M81.9046,343.3665 C81.9046,343.3665 197.9086,265.4605 360.9046,264.3665 C524.6396,263.2675 654.9046,340.6995 666.9046,344.6995 L81.9046,343.3665 Z" id="Stroke-115" stroke="#E1E4E5" stroke-width="4" stroke-linecap="round" stroke-linejoin="round" mask="url(#mask-2)"></path>
            <path d="M538.4022,343.6321 C538.4022,343.6321 631.3052,281.2401 761.8422,280.3641 C892.9702,279.4841 997.2942,341.4961 1006.9042,344.7001 L538.4022,343.6321 Z" id="Fill-116" fill="#FFFFFF" mask="url(#mask-2)"></path>
            <path d="M538.4022,343.6321 C538.4022,343.6321 631.3052,281.2401 761.8422,280.3641 C892.9702,279.4841 997.2942,341.4961 1006.9042,344.7001 L538.4022,343.6321 Z" id="Stroke-117" stroke="#E1E4E5" stroke-width="4" stroke-linecap="round" stroke-linejoin="round" mask="url(#mask-2)"></path>
            <g id="Group-120" mask="url(#mask-2)">
                <g transform="translate(300.000000, 282.700000)">
                    <path d="M202.1155,0.1831 C191.1325,21.0811 169.9725,25.7311 147.9195,27.6971 C126.7075,29.5871 105.5935,29.0361 84.2985,28.8041 C52.5335,28.4571 22.8335,39.4541 0.4545,62.0001" id="Fill-118" stroke="none" fill="#FFFFFF" fill-rule="evenodd"></path>
                    <path d="M202.1155,0.1831 C191.1325,21.0811 169.9725,25.7311 147.9195,27.6971 C126.7075,29.5871 105.5935,29.0361 84.2985,28.8041 C52.5335,28.4571 22.8335,39.4541 0.4545,62.0001" id="Stroke-119" stroke="#E1E4E5" stroke-width="4" fill="none" stroke-linecap="round" stroke-linejoin="round"></path>
                </g>
            </g>
        </g>
    </g>
</svg>