<?xml version="1.0" encoding="utf-8"?>
<!-- Generator: Adobe Illustrator 22.0.1, SVG Export Plug-In . SVG Version: 6.00 Build 0)  -->
<svg version="1.1" id="Layer_1" xmlns="http://www.w3.org/2000/svg" xmlns:xlink="http://www.w3.org/1999/xlink" x="0px" y="0px"
	 viewBox="0 0 217 34" style="enable-background:new 0 0 217 34;" xml:space="preserve" width="216" height="72">
<style type="text/css">
	.st0{enable-background:new    ;}
	.st1{fill:#1B35A2;}
</style>
<title>estimates.</title>
<desc>Created with Sketch.</desc>
<g id="Page-1">
	<g class="st0">
		<path class="st1" d="M22.5,28.2c0.1,0.1,0.2,0.3,0.2,0.5s-0.1,0.4-0.3,0.6c-3.1,3.1-5.4,4.2-9.8,4.2c-6,0-11.7-4.2-11.7-11.8
			C0.9,14.6,6.1,10,12.4,10c7.7,0,11.2,6,11.2,11.4v1c0,0.7-0.3,1-1,1H5.8c0.6,3.6,3.2,6,7.1,6c3.2,0,4.9-1.2,6.4-2.9
			c0.2-0.3,0.4-0.4,0.7-0.4c0.2,0,0.4,0.1,0.6,0.3L22.5,28.2z M18.7,19.3c-0.8-3.5-3.4-5.1-6.2-5.1c-3.1,0-6,1.9-6.7,5.1H18.7z"/>
		<path class="st1" d="M29.5,25.6c0.3-0.2,0.5-0.2,0.8-0.2c0.3,0,0.6,0.2,0.9,0.6c1.8,2.4,3.9,3.4,5.8,3.4c2,0,3.2-1,3.2-2.6
			c0-1.8-1.2-2.5-5.3-3.6c-3.7-1-6.7-2.9-6.7-6.7c0-4.2,3.9-6.3,7.7-6.3c3.5,0,5.9,1,8,2.9c0.3,0.2,0.4,0.4,0.4,0.8
			c0,0.2-0.1,0.5-0.3,0.7l-1.4,1.8c-0.3,0.3-0.5,0.4-0.8,0.4s-0.6-0.1-0.8-0.3c-1.9-1.5-3.4-2.1-5.2-2.1c-1.7,0-2.7,0.9-2.7,2
			c0,1.4,1.1,2.3,4.8,3.2c5,1.2,7.4,3.2,7.4,7.2c0,3.6-3,6.9-8.5,6.9c-3.9,0-7.4-1.7-9.6-5.1c-0.1-0.2-0.2-0.4-0.2-0.7
			c0-0.4,0.2-0.8,0.6-1L29.5,25.6z"/>
		<path class="st1" d="M52.1,14.7h-3.6c-0.7,0-1-0.3-1-1v-2.3c0-0.7,0.3-1,1-1h3.6V3.6c0-0.7,0.3-1,1-1h3c0.7,0,1,0.3,1,1v6.8h5.1
			c0.7,0,1,0.3,1,1v2.3c0,0.7-0.3,1-1,1H57v11.2c0,2.1,0.9,3.4,2.9,3.4c1,0,1.4-0.2,1.8-0.2c0.3,0,0.5,0.2,0.5,0.5v3
			c0,0.5-0.1,0.6-0.7,0.7c-0.9,0.1-2,0.2-3.2,0.2c-3.6,0-6.2-2-6.2-6V14.7z"/>
		<path class="st1" d="M69.9,0.3c1.8,0,3.3,1.4,3.3,3.3s-1.4,3.3-3.3,3.3c-1.8,0-3.3-1.4-3.3-3.3S68.1,0.3,69.9,0.3z M67.5,11.4
			c0-0.7,0.3-1,1-1h3c0.7,0,1,0.3,1,1V32c0,0.7-0.3,1-1,1h-3c-0.7,0-1-0.3-1-1V11.4z"/>
		<path class="st1" d="M78.1,11.4c0-0.7,0.3-1,1-1h3c0.7,0,1,0.3,1,1v2.1c1.5-2.2,3.5-3.5,6.7-3.5c2.9,0,4.8,1.2,5.7,3.2
			c1.5-1.8,3.9-3.2,7.2-3.2c4,0,6.8,2.2,6.8,6.7V32c0,0.7-0.3,1-1,1h-3c-0.7,0-1-0.3-1-1V17.3c0-2-0.9-3.1-2.8-3.1
			c-1.4,0-2.8,0.7-3.9,2.1C96.5,17.7,96,19,96,21.4V32c0,0.7-0.3,1-1,1h-3c-0.7,0-1-0.3-1-1V17.3c0-2-0.9-3.1-2.8-3.1
			c-1.3,0-2.7,0.8-3.7,2.1c-1,1.3-1.5,2.3-1.5,4.8v11c0,0.7-0.3,1-1,1h-3c-0.7,0-1-0.3-1-1V11.4z"/>
		<path class="st1" d="M132.5,30.8c-1.9,1.8-3.7,2.7-7.2,2.7c-6.1,0-11.2-3.9-11.2-11.8c0-7.4,5.2-11.8,11.5-11.8
			c3.4,0,5.7,1.2,6.9,2.6v-1.2c0-0.7,0.3-1,1-1h3c0.7,0,1,0.3,1,1V32c0,0.7-0.3,1-1,1h-2.4c-0.6,0-1-0.2-1.2-1L132.5,30.8z
			 M132.5,19.7c0-1.4-0.3-2.4-1.4-3.5c-1-1-2.6-2-4.9-2c-4,0-7,2.8-7,7.6c0,4.6,2.9,7.5,6.9,7.5c2.5,0,4.3-1.2,5.3-2.4
			c0.8-1.1,1.1-2.1,1.1-3.6V19.7z"/>
		<path class="st1" d="M145.1,14.7h-3.6c-0.7,0-1-0.3-1-1v-2.3c0-0.7,0.3-1,1-1h3.6V3.6c0-0.7,0.3-1,1-1h3c0.7,0,1,0.3,1,1v6.8h5.1
			c0.7,0,1,0.3,1,1v2.3c0,0.7-0.3,1-1,1H150v11.2c0,2.1,0.9,3.4,2.9,3.4c1,0,1.4-0.2,1.8-0.2c0.3,0,0.5,0.2,0.5,0.5v3
			c0,0.5-0.1,0.6-0.7,0.7c-0.9,0.1-2,0.2-3.2,0.2c-3.6,0-6.2-2-6.2-6V14.7z"/>
		<path class="st1" d="M180,28.2c0.1,0.1,0.2,0.3,0.2,0.5s-0.1,0.4-0.3,0.6c-3.1,3.1-5.4,4.2-9.8,4.2c-6,0-11.7-4.2-11.7-11.8
			c0-7.2,5.2-11.8,11.5-11.8c7.7,0,11.2,6,11.2,11.4v1c0,0.7-0.3,1-1,1h-16.9c0.6,3.6,3.2,6,7.1,6c3.2,0,4.9-1.2,6.4-2.9
			c0.2-0.3,0.4-0.4,0.7-0.4c0.2,0,0.4,0.1,0.6,0.3L180,28.2z M176.3,19.3c-0.8-3.5-3.4-5.1-6.2-5.1c-3.1,0-6,1.9-6.7,5.1H176.3z"/>
		<path class="st1" d="M187.1,25.6c0.3-0.2,0.5-0.2,0.8-0.2c0.3,0,0.6,0.2,0.9,0.6c1.8,2.4,3.9,3.4,5.8,3.4c2,0,3.2-1,3.2-2.6
			c0-1.8-1.2-2.5-5.3-3.6c-3.7-1-6.7-2.9-6.7-6.7c0-4.2,3.9-6.3,7.7-6.3c3.5,0,5.9,1,8,2.9c0.3,0.2,0.4,0.4,0.4,0.8
			c0,0.2-0.1,0.5-0.3,0.7l-1.4,1.8c-0.3,0.3-0.5,0.4-0.8,0.4s-0.6-0.1-0.8-0.3c-1.9-1.5-3.4-2.1-5.2-2.1c-1.7,0-2.7,0.9-2.7,2
			c0,1.4,1.1,2.3,4.8,3.2c5,1.2,7.4,3.2,7.4,7.2c0,3.6-3,6.9-8.5,6.9c-3.9,0-7.4-1.7-9.6-5.1c-0.1-0.2-0.2-0.4-0.2-0.7
			c0-0.4,0.2-0.8,0.6-1L187.1,25.6z"/>
		<path class="st1" d="M209,26.9c1.9,0,3.4,1.5,3.4,3.4c0,1.8-1.5,3.3-3.4,3.3c-1.8,0-3.3-1.4-3.3-3.3
			C205.7,28.3,207.1,26.9,209,26.9z"/>
	</g>
</g>
</svg>
