<?xml version="1.0" encoding="utf-8"?>
<!-- Generator: Adobe Illustrator 22.0.1, SVG Export Plug-In . SVG Version: 6.00 Build 0)  -->
<svg version="1.1" id="Layer_1" xmlns="http://www.w3.org/2000/svg" xmlns:xlink="http://www.w3.org/1999/xlink" x="0px" y="0px"
	 viewBox="0 0 216 72" style="enable-background:new 0 0 216 72;" xml:space="preserve">
<style type="text/css">
	.st0{enable-background:new    ;}
	.st1{fill:#1B35A2;}
</style>
<g id="Page-1">
	<g class="st0">
		<path class="st1" d="M22.4,43.1c0.1,0.1,0.2,0.3,0.2,0.5s-0.1,0.4-0.3,0.6c-3.1,3.1-5.4,4.2-9.8,4.2c-6,0-11.6-4.2-11.6-11.7
			C0.9,29.6,6.1,25,12.3,25c7.7,0,11.1,6,11.1,11.3v1c0,0.7-0.3,1-1,1H5.8c0.6,3.6,3.2,6,7.1,6c3.2,0,4.9-1.2,6.4-2.9
			c0.2-0.3,0.4-0.4,0.7-0.4c0.2,0,0.4,0.1,0.6,0.3L22.4,43.1z M18.6,34.3c-0.8-3.5-3.4-5.1-6.2-5.1c-3.1,0-6,1.9-6.7,5.1H18.6z"/>
		<path class="st1" d="M29.4,40.6c0.3-0.2,0.5-0.2,0.8-0.2s0.6,0.2,0.9,0.6c1.8,2.4,3.9,3.4,5.8,3.4c2,0,3.2-1,3.2-2.6
			c0-1.8-1.2-2.5-5.3-3.6c-3.7-1-6.7-2.9-6.7-6.7c0-4.2,3.9-6.3,7.7-6.3c3.5,0,5.9,1,8,2.9c0.3,0.2,0.4,0.4,0.4,0.8
			c0,0.2-0.1,0.5-0.3,0.7l-1.4,1.8c-0.3,0.3-0.5,0.4-0.8,0.4s-0.6-0.1-0.8-0.3c-1.9-1.5-3.4-2.1-5.2-2.1c-1.7,0-2.7,0.9-2.7,2
			c0,1.4,1.1,2.3,4.8,3.2c5,1.2,7.4,3.2,7.4,7.2c0,3.6-3,6.9-8.5,6.9c-3.9,0-7.4-1.7-9.6-5.1c-0.1-0.2-0.2-0.4-0.2-0.7
			c0-0.4,0.2-0.8,0.6-1L29.4,40.6z"/>
		<path class="st1" d="M51.9,29.7h-3.6c-0.7,0-1-0.3-1-1v-2.3c0-0.7,0.3-1,1-1h3.6v-6.8c0-0.7,0.3-1,1-1h3c0.7,0,1,0.3,1,1v6.8H62
			c0.7,0,1,0.3,1,1v2.3c0,0.7-0.3,1-1,1h-5.2v11.1c0,2.1,0.9,3.4,2.9,3.4c1,0,1.4-0.2,1.8-0.2c0.3,0,0.5,0.2,0.5,0.5v3
			c0,0.5-0.1,0.6-0.7,0.7c-0.9,0.1-2,0.2-3.2,0.2c-3.6,0-6.2-2-6.2-6C51.9,42.4,51.9,29.7,51.9,29.7z"/>
		<path class="st1" d="M69.6,15.4c1.8,0,3.3,1.4,3.3,3.3S71.5,22,69.6,22c-1.8,0-3.3-1.4-3.3-3.3C66.3,16.8,67.8,15.4,69.6,15.4z
			 M67.2,26.4c0-0.7,0.3-1,1-1h3c0.7,0,1,0.3,1,1v20.5c0,0.7-0.3,1-1,1h-3c-0.7,0-1-0.3-1-1V26.4z"/>
		<path class="st1" d="M77.7,26.4c0-0.7,0.3-1,1-1h3c0.7,0,1,0.3,1,1v2.1c1.5-2.2,3.5-3.5,6.7-3.5c2.9,0,4.8,1.2,5.7,3.2
			c1.5-1.8,3.9-3.2,7.2-3.2c4,0,6.8,2.2,6.8,6.7v15.2c0,0.7-0.3,1-1,1h-3c-0.7,0-1-0.3-1-1V32.3c0-2-0.9-3.1-2.8-3.1
			c-1.4,0-2.8,0.7-3.9,2.1c-1.3,1.4-1.8,2.7-1.8,5.1V47c0,0.7-0.3,1-1,1h-3c-0.7,0-1-0.3-1-1V32.3c0-2-0.9-3.1-2.8-3.1
			c-1.3,0-2.7,0.8-3.7,2.1s-1.5,2.3-1.5,4.8V47c0,0.7-0.3,1-1,1h-3c-0.7,0-1-0.3-1-1L77.7,26.4L77.7,26.4z"/>
		<path class="st1" d="M131.9,45.7c-1.9,1.8-3.7,2.7-7.2,2.7c-6.1,0-11.1-3.9-11.1-11.7c0-7.4,5.2-11.7,11.4-11.7
			c3.4,0,5.7,1.2,6.9,2.6v-1.2c0-0.7,0.3-1,1-1h3c0.7,0,1,0.3,1,1V47c0,0.7-0.3,1-1,1h-2.4c-0.6,0-1-0.2-1.2-1L131.9,45.7z
			 M131.9,34.7c0-1.4-0.3-2.4-1.4-3.5c-1-1-2.6-2-4.9-2c-4,0-7,2.8-7,7.6c0,4.6,2.9,7.5,6.9,7.5c2.5,0,4.3-1.2,5.3-2.4
			c0.8-1.1,1.1-2.1,1.1-3.6L131.9,34.7L131.9,34.7z"/>
		<path class="st1" d="M144.4,29.7h-3.6c-0.7,0-1-0.3-1-1v-2.3c0-0.7,0.3-1,1-1h3.6v-6.8c0-0.7,0.3-1,1-1h3c0.7,0,1,0.3,1,1v6.8h5.1
			c0.7,0,1,0.3,1,1v2.3c0,0.7-0.3,1-1,1h-5.2v11.1c0,2.1,0.9,3.4,2.9,3.4c1,0,1.4-0.2,1.8-0.2c0.3,0,0.5,0.2,0.5,0.5v3
			c0,0.5-0.1,0.6-0.7,0.7c-0.9,0.1-2,0.2-3.2,0.2c-3.6,0-6.2-2-6.2-6L144.4,29.7L144.4,29.7z"/>
		<path class="st1" d="M179.2,43.1c0.1,0.1,0.2,0.3,0.2,0.5s-0.1,0.4-0.3,0.6c-3.1,3.1-5.4,4.2-9.8,4.2c-6,0-11.6-4.2-11.6-11.7
			c0-7.2,5.2-11.7,11.4-11.7c7.7,0,11.1,6,11.1,11.3v1c0,0.7-0.3,1-1,1h-16.8c0.6,3.6,3.2,6,7.1,6c3.2,0,4.9-1.2,6.4-2.9
			c0.2-0.3,0.4-0.4,0.7-0.4c0.2,0,0.4,0.1,0.6,0.3L179.2,43.1z M175.5,34.3c-0.8-3.5-3.4-5.1-6.2-5.1c-3.1,0-6,1.9-6.7,5.1H175.5z"
			/>
		<path class="st1" d="M186.2,40.6c0.3-0.2,0.5-0.2,0.8-0.2s0.6,0.2,0.9,0.6c1.8,2.4,3.9,3.4,5.8,3.4c2,0,3.2-1,3.2-2.6
			c0-1.8-1.2-2.5-5.3-3.6c-3.7-1-6.7-2.9-6.7-6.7c0-4.2,3.9-6.3,7.7-6.3c3.5,0,5.9,1,8,2.9c0.3,0.2,0.4,0.4,0.4,0.8
			c0,0.2-0.1,0.5-0.3,0.7l-1.4,1.8c-0.3,0.3-0.5,0.4-0.8,0.4s-0.6-0.1-0.8-0.3c-1.9-1.5-3.4-2.1-5.2-2.1c-1.7,0-2.7,0.9-2.7,2
			c0,1.4,1.1,2.3,4.8,3.2c5,1.2,7.4,3.2,7.4,7.2c0,3.6-3,6.9-8.5,6.9c-3.9,0-7.4-1.7-9.6-5.1c-0.1-0.2-0.2-0.4-0.2-0.7
			c0-0.4,0.2-0.8,0.6-1L186.2,40.6z"/>
	</g>
</g>
</svg>
